<svg width="180" height="32" viewBox="0 0 180 32" fill="none" xmlns="http://www.w3.org/2000/svg">
<path d="M52.4883 18.6074H48.2783L47.7773 19.7676C47.6133 20.1543 47.5312 20.4736 47.5312 20.7256C47.5312 21.0596 47.666 21.3057 47.9355 21.4639C48.0938 21.5576 48.4834 21.6279 49.1045 21.6748V22H45.1406V21.6748C45.5684 21.6104 45.9199 21.4346 46.1953 21.1475C46.4707 20.8545 46.8105 20.2539 47.2148 19.3457L51.4775 9.83594H51.6445L55.9424 19.6094C56.3525 20.5352 56.6895 21.1182 56.9531 21.3584C57.1523 21.54 57.4336 21.6455 57.7969 21.6748V22H52.0312V21.6748H52.2686C52.7314 21.6748 53.0566 21.6104 53.2441 21.4814C53.373 21.3877 53.4375 21.2529 53.4375 21.0771C53.4375 20.9717 53.4199 20.8633 53.3848 20.752C53.373 20.6992 53.2852 20.4795 53.1211 20.0928L52.4883 18.6074ZM52.1895 17.957L50.4141 13.8525L48.5859 17.957H52.1895ZM66.5859 17.9395L69.8203 10.082H74.6719V10.4072H74.2852C73.9336 10.4072 73.6523 10.4688 73.4414 10.5918C73.2949 10.6738 73.1777 10.8115 73.0898 11.0049C73.0254 11.1455 72.9932 11.5117 72.9932 12.1035V19.9609C72.9932 20.5703 73.0254 20.9512 73.0898 21.1035C73.1543 21.2559 73.2861 21.3906 73.4854 21.5078C73.6846 21.6191 73.9512 21.6748 74.2852 21.6748H74.6719V22H68.4492V21.6748H68.8359C69.1875 21.6748 69.4688 21.6133 69.6797 21.4902C69.8262 21.4082 69.9434 21.2676 70.0312 21.0684C70.0957 20.9277 70.1279 20.5586 70.1279 19.9609V11.1279L65.5576 22H65.3467L60.7061 11.207V19.6006C60.7061 20.1865 60.7207 20.5469 60.75 20.6816C60.8262 20.9746 60.9902 21.2148 61.2422 21.4023C61.5 21.584 61.9014 21.6748 62.4463 21.6748V22H58.3682V21.6748H58.4912C58.7549 21.6807 59.001 21.6396 59.2295 21.5518C59.458 21.458 59.6309 21.335 59.748 21.1826C59.8652 21.0303 59.9561 20.8164 60.0205 20.541C60.0322 20.4766 60.0381 20.1777 60.0381 19.6445V12.1035C60.0381 11.5 60.0059 11.125 59.9414 10.9785C59.877 10.8262 59.7451 10.6943 59.5459 10.583C59.3467 10.4658 59.0801 10.4072 58.7461 10.4072H58.3682V10.082H63.2373L66.5859 17.9395ZM81.958 9.91504C83.8564 9.84473 85.3975 10.3984 86.5811 11.5762C87.7705 12.7539 88.3652 14.2275 88.3652 15.9971C88.3652 17.5088 87.9229 18.8389 87.0381 19.9873C85.8662 21.5107 84.2109 22.2725 82.0723 22.2725C79.9277 22.2725 78.2695 21.5459 77.0977 20.0928C76.1719 18.9443 75.709 17.582 75.709 16.0059C75.709 14.2363 76.3096 12.7627 77.5107 11.585C78.7178 10.4014 80.2002 9.84473 81.958 9.91504ZM82.0635 10.4775C80.9736 10.4775 80.1445 11.0342 79.5762 12.1475C79.1133 13.0615 78.8818 14.374 78.8818 16.085C78.8818 18.1182 79.2393 19.6211 79.9541 20.5938C80.4521 21.2734 81.1494 21.6133 82.0459 21.6133C82.6494 21.6133 83.1533 21.4668 83.5576 21.1738C84.0732 20.7988 84.4746 20.2012 84.7617 19.3809C85.0488 18.5547 85.1924 17.4795 85.1924 16.1553C85.1924 14.5791 85.0459 13.4014 84.7529 12.6221C84.46 11.8369 84.085 11.2832 83.6279 10.9609C83.1768 10.6387 82.6553 10.4775 82.0635 10.4775ZM93.9375 16.2695V19.9609C93.9375 20.5703 93.9697 20.9512 94.0342 21.1035C94.1045 21.2559 94.2363 21.3906 94.4297 21.5078C94.6289 21.6191 94.8955 21.6748 95.2295 21.6748H95.625V22H89.3936V21.6748H89.7891C90.1348 21.6748 90.4131 21.6133 90.624 21.4902C90.7764 21.4082 90.8936 21.2676 90.9756 21.0684C91.04 20.9277 91.0723 20.5586 91.0723 19.9609V12.1211C91.0723 11.5117 91.04 11.1309 90.9756 10.9785C90.9111 10.8262 90.7793 10.6943 90.5801 10.583C90.3867 10.4658 90.123 10.4072 89.7891 10.4072H89.3936V10.082H95.625V10.4072H95.2295C94.8838 10.4072 94.6055 10.4688 94.3945 10.5918C94.2422 10.6738 94.1221 10.8145 94.0342 11.0137C93.9697 11.1543 93.9375 11.5234 93.9375 12.1211V15.4961H98.1475V12.1211C98.1475 11.5117 98.1152 11.1309 98.0508 10.9785C97.9863 10.8262 97.8545 10.6943 97.6553 10.583C97.4561 10.4658 97.1895 10.4072 96.8555 10.4072H96.4688V10.082H102.691V10.4072H102.305C101.953 10.4072 101.675 10.4688 101.47 10.5918C101.317 10.6738 101.197 10.8145 101.109 11.0137C101.045 11.1543 101.013 11.5234 101.013 12.1211V19.9609C101.013 20.5703 101.045 20.9512 101.109 21.1035C101.174 21.2559 101.306 21.3906 101.505 21.5078C101.704 21.6191 101.971 21.6748 102.305 21.6748H102.691V22H96.4688V21.6748H96.8555C97.207 21.6748 97.4854 21.6133 97.6904 21.4902C97.8428 21.4082 97.9629 21.2676 98.0508 21.0684C98.1152 20.9277 98.1475 20.5586 98.1475 19.9609V16.2695H93.9375ZM110.514 18.6074H106.304L105.803 19.7676C105.639 20.1543 105.557 20.4736 105.557 20.7256C105.557 21.0596 105.691 21.3057 105.961 21.4639C106.119 21.5576 106.509 21.6279 107.13 21.6748V22H103.166V21.6748C103.594 21.6104 103.945 21.4346 104.221 21.1475C104.496 20.8545 104.836 20.2539 105.24 19.3457L109.503 9.83594H109.67L113.968 19.6094C114.378 20.5352 114.715 21.1182 114.979 21.3584C115.178 21.54 115.459 21.6455 115.822 21.6748V22H110.057V21.6748H110.294C110.757 21.6748 111.082 21.6104 111.27 21.4814C111.398 21.3877 111.463 21.2529 111.463 21.0771C111.463 20.9717 111.445 20.8633 111.41 20.752C111.398 20.6992 111.311 20.4795 111.146 20.0928L110.514 18.6074ZM110.215 17.957L108.439 13.8525L106.611 17.957H110.215ZM125.807 10.082V13.3076H125.49C125.303 12.5635 125.095 12.0303 124.866 11.708C124.638 11.3799 124.324 11.1191 123.926 10.9258C123.703 10.8203 123.313 10.7676 122.757 10.7676H121.869V19.9609C121.869 20.5703 121.901 20.9512 121.966 21.1035C122.036 21.2559 122.168 21.3906 122.361 21.5078C122.561 21.6191 122.83 21.6748 123.17 21.6748H123.565V22H117.325V21.6748H117.721C118.066 21.6748 118.345 21.6133 118.556 21.4902C118.708 21.4082 118.828 21.2676 118.916 21.0684C118.98 20.9277 119.013 20.5586 119.013 19.9609V10.7676H118.151C117.349 10.7676 116.766 10.9375 116.402 11.2773C115.893 11.752 115.57 12.4287 115.436 13.3076H115.102V10.082H125.807ZM126.756 10.082H137.039V13.3164H136.705C136.594 12.7188 136.406 12.2324 136.143 11.8574C135.879 11.4766 135.565 11.2158 135.202 11.0752C134.839 10.9287 134.282 10.8555 133.532 10.8555H131.353V15.4961H132.926C134.625 15.4961 135.858 15.7949 136.626 16.3926C137.394 16.9902 137.777 17.7871 137.777 18.7832C137.777 19.4629 137.581 20.0488 137.188 20.541C136.802 21.0332 136.312 21.3994 135.721 21.6396C135.135 21.8799 134.276 22 133.146 22H126.756V21.6748C127.494 21.6631 127.966 21.5664 128.171 21.3848C128.382 21.1973 128.487 20.793 128.487 20.1719V12.0156C128.487 11.3418 128.382 10.9053 128.171 10.7061C127.96 10.5068 127.488 10.4072 126.756 10.4072V10.082ZM131.353 16.2695V19.8643C131.353 20.4326 131.432 20.834 131.59 21.0684C131.748 21.2969 132.041 21.4111 132.469 21.4111C133.154 21.4111 133.67 21.1797 134.016 20.7168C134.367 20.2539 134.543 19.6768 134.543 18.9854C134.543 18.3174 134.385 17.7578 134.068 17.3066C133.752 16.8496 133.397 16.5625 133.005 16.4453C132.618 16.3281 132.067 16.2695 131.353 16.2695ZM145.187 9.91504C147.085 9.84473 148.626 10.3984 149.81 11.5762C150.999 12.7539 151.594 14.2275 151.594 15.9971C151.594 17.5088 151.151 18.8389 150.267 19.9873C149.095 21.5107 147.439 22.2725 145.301 22.2725C143.156 22.2725 141.498 21.5459 140.326 20.0928C139.4 18.9443 138.938 17.582 138.938 16.0059C138.938 14.2363 139.538 12.7627 140.739 11.585C141.946 10.4014 143.429 9.84473 145.187 9.91504ZM145.292 10.4775C144.202 10.4775 143.373 11.0342 142.805 12.1475C142.342 13.0615 142.11 14.374 142.11 16.085C142.11 18.1182 142.468 19.6211 143.183 20.5938C143.681 21.2734 144.378 21.6133 145.274 21.6133C145.878 21.6133 146.382 21.4668 146.786 21.1738C147.302 20.7988 147.703 20.2012 147.99 19.3809C148.277 18.5547 148.421 17.4795 148.421 16.1553C148.421 14.5791 148.274 13.4014 147.981 12.6221C147.688 11.8369 147.313 11.2832 146.856 10.9609C146.405 10.6387 145.884 10.4775 145.292 10.4775ZM157.166 16.2695V19.9609C157.166 20.5703 157.198 20.9512 157.263 21.1035C157.333 21.2559 157.465 21.3906 157.658 21.5078C157.857 21.6191 158.124 21.6748 158.458 21.6748H158.854V22H152.622V21.6748H153.018C153.363 21.6748 153.642 21.6133 153.853 21.4902C154.005 21.4082 154.122 21.2676 154.204 21.0684C154.269 20.9277 154.301 20.5586 154.301 19.9609V12.1211C154.301 11.5117 154.269 11.1309 154.204 10.9785C154.14 10.8262 154.008 10.6943 153.809 10.583C153.615 10.4658 153.352 10.4072 153.018 10.4072H152.622V10.082H158.854V10.4072H158.458C158.112 10.4072 157.834 10.4688 157.623 10.5918C157.471 10.6738 157.351 10.8145 157.263 11.0137C157.198 11.1543 157.166 11.5234 157.166 12.1211V15.4961H161.376V12.1211C161.376 11.5117 161.344 11.1309 161.279 10.9785C161.215 10.8262 161.083 10.6943 160.884 10.583C160.685 10.4658 160.418 10.4072 160.084 10.4072H159.697V10.082H165.92V10.4072H165.533C165.182 10.4072 164.903 10.4688 164.698 10.5918C164.546 10.6738 164.426 10.8145 164.338 11.0137C164.273 11.1543 164.241 11.5234 164.241 12.1211V19.9609C164.241 20.5703 164.273 20.9512 164.338 21.1035C164.402 21.2559 164.534 21.3906 164.733 21.5078C164.933 21.6191 165.199 21.6748 165.533 21.6748H165.92V22H159.697V21.6748H160.084C160.436 21.6748 160.714 21.6133 160.919 21.4902C161.071 21.4082 161.191 21.2676 161.279 21.0684C161.344 20.9277 161.376 20.5586 161.376 19.9609V16.2695H157.166ZM166.623 10.082H172.828V10.4072H172.626C172.04 10.4072 171.647 10.5156 171.448 10.7324C171.255 10.9434 171.158 11.3477 171.158 11.9453V15.5049C171.979 15.5049 172.512 15.4785 172.758 15.4258C173.004 15.3672 173.232 15.2061 173.443 14.9424C173.654 14.6729 173.856 14.1572 174.05 13.3955C174.278 12.5049 174.498 11.8369 174.709 11.3916C174.926 10.9463 175.222 10.5947 175.597 10.3369C175.978 10.0732 176.452 9.94141 177.021 9.94141C177.583 9.94141 178.034 10.1025 178.374 10.4248C178.714 10.7412 178.884 11.1338 178.884 11.6025C178.884 11.9658 178.77 12.2529 178.541 12.4639C178.312 12.6748 178.028 12.7803 177.688 12.7803C177.021 12.7803 176.66 12.3936 176.607 11.6201C176.584 11.2334 176.449 11.04 176.203 11.04C175.939 11.04 175.714 11.1895 175.526 11.4883C175.339 11.7871 175.137 12.3232 174.92 13.0967C174.709 13.8525 174.527 14.4209 174.375 14.8018C174.223 15.1768 174.006 15.4932 173.725 15.751C174.1 15.8447 174.387 15.9678 174.586 16.1201C174.791 16.2725 174.976 16.4717 175.14 16.7178C175.304 16.958 175.655 17.5732 176.194 18.5635L177.407 20.7256C177.595 21.0479 177.817 21.2881 178.075 21.4463C178.339 21.5986 178.655 21.6748 179.024 21.6748V22H175.034L172.582 17.4297C172.301 16.9141 172.093 16.6035 171.958 16.498C171.829 16.3867 171.562 16.3223 171.158 16.3047V20.3389C171.158 20.9131 171.275 21.2793 171.51 21.4375C171.75 21.5957 172.189 21.6748 172.828 21.6748V22H166.623V21.6748C167.309 21.6631 167.757 21.5635 167.968 21.376C168.185 21.1826 168.293 20.7725 168.293 20.1455V12.1738C168.293 11.4766 168.208 11.0078 168.038 10.7676C167.868 10.5273 167.481 10.4072 166.878 10.4072H166.623V10.082Z" fill="#007640"/>
<path fill-rule="evenodd" clip-rule="evenodd" d="M16.0039 8.41309H18.9678V23.4411H16.0039V8.41309Z" fill="#007640"/>
<path fill-rule="evenodd" clip-rule="evenodd" d="M14.084 8.41309H15.4208V17.274H14.084V8.41309Z" fill="#007640"/>
<path fill-rule="evenodd" clip-rule="evenodd" d="M9.8913 6.64844C11.6792 6.64844 13.1283 7.96548 13.1283 9.59022C13.1283 11.215 11.6792 12.532 9.8913 12.532C8.10353 12.532 6.6543 11.215 6.6543 9.59022C6.6543 7.96548 8.10353 6.64844 9.8913 6.64844V6.64844ZM9.8913 7.89547C10.9213 7.89547 11.7562 8.65425 11.7562 9.59022C11.7562 10.5263 10.9213 11.285 9.8913 11.285C8.86139 11.285 8.02653 10.5263 8.02653 9.59022C8.02653 8.65425 8.86139 7.89547 9.8913 7.89547Z" fill="#007640"/>
<path fill-rule="evenodd" clip-rule="evenodd" d="M14.0837 11.279C13.324 12.5514 11.7324 13.4278 9.89198 13.4278C8.10877 13.4278 6.5591 12.6049 5.77353 11.3962H1.98214L3.95754 13.1925H3.28343L1.30744 11.3956L0.828965 10.9628H0.831409H5.9973C6.64521 12.2041 8.14508 13.0739 9.89198 13.0739C12.0222 13.0739 13.7854 11.7804 14.0837 10.0973V8.41309H15.4205V17.2739L9.78507 23.856H2.28621L5.1391 20.393H2.06639L1.58033 19.9596L0.800742 19.2506L0.322268 18.8178H0.324712H1.41865L0.55034 18.0281L0.0718681 17.5953H0.0743097H1.61808L0.481084 16.5614L0.00261028 16.1286H0.00505395H1.38605L0.478558 15.3032L0 14.8704H0.002528L2.06412 14.8706L0.698289 13.6285L0.219815 13.1957H0.222259H5.12596V13.1925C6.16101 13.9557 7.19934 14.3978 9.02789 14.3978C10.8564 14.3978 13.0704 13.4361 14.0837 12.0061V11.279V11.279ZM14.7328 17.2739H14.0837V17.2214C12.0875 18.5022 9.57654 19.2661 6.84876 19.2661V19.2512H1.47535L2.25444 19.9596H6.22352C9.49524 19.9596 12.4786 18.9429 14.7328 17.2739ZM14.0837 16.6801V16.2121C12.2581 17.4706 9.9053 18.2291 7.33718 18.2291C6.57856 18.2291 5.83907 18.1623 5.12596 18.0366V18.0286H1.22495L2.09276 18.8178H6.84876V18.8327C9.60055 18.8327 12.1226 18.0237 14.0837 16.6801V16.6801ZM14.0837 15.6518V15.0031C12.4855 16.2175 10.3489 16.9601 8.00151 16.9601C6.99562 16.9601 6.02873 16.8231 5.12596 16.5717V16.5619H1.1557L2.29219 17.5953H5.12596V17.6032C5.83739 17.7354 5.65734 17.8055 7.33718 17.8055C9.01693 17.8055 12.305 16.9892 14.0837 15.6518V15.6518ZM14.0837 14.4459V13.8269C12.6786 15.1016 10.6492 15.9028 8.39236 15.9028C7.22428 15.9028 6.11736 15.6879 5.12596 15.3041L1.15317 15.3037L2.06024 16.1286H5.12596V16.1384C6.02443 16.4035 6.30567 16.5482 8.00151 16.5482C9.69736 16.5482 12.538 15.7428 14.0837 14.4459V14.4459ZM14.0837 13.2474V12.6403C12.942 13.9172 11.1028 14.7463 9.02789 14.7463C7.55278 14.7463 6.19715 14.3269 5.12596 13.6259V13.629H1.37299L2.73823 14.8706L5.12596 14.8707C6.10809 15.2779 6.65237 15.5078 8.39245 15.5078C10.1324 15.5078 12.7523 14.6243 14.0837 13.2474V13.2474Z" fill="#007640"/>
<path fill-rule="evenodd" clip-rule="evenodd" d="M17.4862 0C24.0129 0 29.7066 3.24425 32.7226 8.05476H31.067C28.2055 3.98652 23.192 1.28873 17.4862 1.28873C10.5084 1.28873 4.56653 5.32361 2.32945 10.9653H0.830078C3.12538 4.59937 9.71516 0 17.4862 0V0ZM34.1219 20.9452C31.808 27.2816 25.2339 31.8537 17.4862 31.8537C10.9854 31.8537 5.31024 28.6348 2.28504 23.8558H3.94618C6.81432 27.8922 11.8072 30.565 17.4862 30.565C24.4405 30.565 30.3666 26.5572 32.621 20.9452H34.1219V20.9452Z" fill="#007640"/>
<path fill-rule="evenodd" clip-rule="evenodd" d="M25.1081 25.2254C23.3203 25.2254 21.8711 23.9084 21.8711 22.2836C21.8711 20.6588 23.3203 19.3418 25.1081 19.3418C26.8959 19.3418 28.3451 20.6588 28.3451 22.2836C28.3451 23.9084 26.8959 25.2254 25.1081 25.2254ZM25.1081 23.9783C24.0782 23.9783 23.2433 23.2196 23.2433 22.2836C23.2433 21.3476 24.0782 20.5888 25.1081 20.5888C26.1381 20.5888 26.973 21.3476 26.973 22.2836C26.973 23.2196 26.1381 23.9783 25.1081 23.9783Z" fill="#007640"/>
<path fill-rule="evenodd" clip-rule="evenodd" d="M20.915 20.5958C21.6748 19.3233 23.2663 18.4469 25.1066 18.4469C26.8899 18.4469 28.4396 19.2699 29.2252 20.4785H33.0166L31.0412 18.6821H31.7153L33.6913 20.479L34.1697 20.9119H34.1672H29.0014C28.3535 19.6706 26.8535 18.8008 25.1066 18.8008C22.9765 18.8008 21.2133 20.0942 20.915 21.7774V23.4616H19.5781V14.6007L25.2237 8.05469H32.7225L30.0384 11.4818H32.9323L33.4183 11.9151L34.198 12.6241L34.6764 13.0569H34.674H33.5801L34.4484 13.8465L34.9268 14.2794H34.9244H33.3806L34.5176 15.3133L34.9961 15.7462H34.9937H33.6126L34.5202 16.5714L34.9986 17.0043H34.9962L32.9346 17.0041L34.3004 18.2461L34.7789 18.679H34.7764H29.8727V18.6821C28.8376 17.919 27.7993 17.4768 25.9707 17.4768C24.1423 17.4768 21.9283 18.4385 20.915 19.8686V20.5958V20.5958ZM20.2659 14.6007H20.915V14.6532C22.9112 13.3724 25.4222 12.6087 28.15 12.6087V12.6236H33.5233L32.7442 11.9151H28.7751C25.5034 11.9151 22.5201 12.9318 20.2659 14.6007ZM20.915 15.1946V15.6625C22.7406 14.4041 25.0933 13.6456 27.6615 13.6456C28.4201 13.6456 29.1596 13.7125 29.8727 13.8381V13.846H33.7737L32.906 13.0569H28.15V13.042C25.3982 13.042 22.8761 13.851 20.915 15.1946V15.1946ZM20.915 16.2229V16.8715C22.5132 15.6572 24.6498 14.9145 26.9972 14.9145C28.0031 14.9145 28.97 15.0516 29.8727 15.3029V15.3128H33.8429L32.7065 14.2794H29.8727V14.2714C29.1613 14.1394 29.3414 14.0691 27.6615 14.0691C25.9817 14.0691 22.6937 14.8854 20.915 16.2229V16.2229ZM20.915 17.4288V18.0478C22.3201 16.773 24.3495 15.9719 26.6064 15.9719C27.7744 15.9719 28.8813 16.1868 29.8727 16.5706L33.8455 16.5709L32.9385 15.7462H29.8727V15.7363C28.9743 15.4712 28.693 15.3264 26.9972 15.3264C25.3014 15.3264 22.4607 16.1319 20.915 17.4288V17.4288ZM20.915 18.6272V19.2343C22.0567 17.9575 23.8959 17.1283 25.9707 17.1283C27.4459 17.1283 28.8016 17.5477 29.8727 18.2488V18.2456H33.6257L32.2605 17.0041L29.8727 17.004C28.8906 16.5968 28.3463 16.3668 26.6063 16.3668C24.8662 16.3668 22.2463 17.2503 20.915 18.6272Z" fill="#007640"/>
</svg>
