<svg width="24" height="24" viewBox="0 0 40 40" fill="none" xmlns="http://www.w3.org/2000/svg">
<path d="M20 40C31.0457 40 40 31.0457 40 20C40 8.9543 31.0457 0 20 0C8.9543 0 0 8.9543 0 20C0 31.0457 8.9543 40 20 40Z" fill="white"/>
<path d="M20.0004 1.41798C16.3202 1.41456 12.7218 2.50295 9.6604 4.54541C6.59903 6.58787 4.21236 9.49259 2.80244 12.892C1.39252 16.2913 1.02273 20.0326 1.73986 23.6422C2.45699 27.2518 4.2288 30.5676 6.83107 33.1699C9.43335 35.7721 12.7491 37.5439 16.3587 38.2611C19.9684 38.9782 23.7096 38.6084 27.109 37.1985C30.5083 35.7886 33.4131 33.4019 35.4555 30.3405C37.498 27.2792 38.5864 23.6807 38.583 20.0005C38.583 17.5602 38.1023 15.1438 37.1684 12.8893C36.2346 10.6348 34.8658 8.58623 33.1403 6.86068C31.4147 5.13513 29.3662 3.76635 27.1116 2.83249C24.8571 1.89863 22.4407 1.41798 20.0004 1.41798ZM20.0004 29.1794L10.8388 20.0005L20.0004 10.8389L29.162 20.0005L20.0004 29.1794Z" fill="#ED1C24"/>
</svg>
