<svg xmlns="http://www.w3.org/2000/svg" viewBox="0 0 320 320" width="40" height="40">
  <path fill="#f3f7f6" d="M 0.5,0.5 C 106.167,0.5 212.833,0.5 319.5,0.5 C 319.5,106.167 319.5,212.833 319.5,319.5 C 212.833,319.5 106.167,319.5 0.5,319.5 C 0.5,212.833 0.5,106.167 0.5,0.5 Z"/>
  <path fill="#f17537" d="M 206.5,128.5 C 194.514,129.156 185.847,134.822 180.5,145.5 C 179.825,129.32 186.825,118.154 201.5,112 C 218.177,111.167 234.843,111.334 251.5,112.5 C 247.069,121.058 240.069,126.225 230.5,128 C 222.507,128.5 214.507,128.666 206.5,128.5 Z"/>
  <path fill="#1e4f87" d="M 93.5,119.5 C 101.833,119.5 110.167,119.5 118.5,119.5 C 115.874,138.797 113.541,158.13 111.5,177.5 C 102.759,176.563 94.4252,177.896 86.5,181.5 C 86.1667,181 85.8333,180.5 85.5,180 C 88.7745,159.912 91.4412,139.745 93.5,119.5 Z"/>
  <path fill="#1e4f86" d="M 177.5,161.5 C 170.636,174.272 159.969,181.606 145.5,183.5 C 143.585,183.784 141.919,183.451 140.5,182.5 C 146.181,180.318 150.014,176.318 152,170.5 C 153.065,164.189 153.398,157.856 153,151.5 C 151.01,147.51 147.843,145.01 143.5,144 C 136.508,143.5 129.508,143.334 122.5,143.5 C 122.737,135.529 123.737,127.695 125.5,120 C 150.584,115.662 167.751,125.162 177,148.5 C 177.499,152.821 177.666,157.154 177.5,161.5 Z"/>
  <path fill="#1f4f86" d="M 206.5,128.5 C 203.142,130.7 200.642,133.7 199,137.5 C 198.333,142.5 198.333,147.5 199,152.5 C 200.214,154.049 201.714,155.215 203.5,156 C 212.494,156.5 221.494,156.666 230.5,156.5 C 229.915,162.178 229.249,167.845 228.5,173.5 C 219.494,173.666 210.494,173.5 201.5,173 C 188.234,168.572 181.234,159.406 180.5,145.5 C 185.847,134.822 194.514,129.156 206.5,128.5 Z"/>
  <path fill="#2b568c" d="M 234.5,156.5 C 236.167,156.5 237.833,156.5 239.5,156.5 C 239.66,161.566 239.16,166.566 238,171.5 C 236.951,173.107 235.451,173.773 233.5,173.5 C 233.76,167.828 234.093,162.161 234.5,156.5 Z"/>
  <path fill="#f17536" d="M 177.5,161.5 C 178.369,187.162 166.369,202.496 141.5,207.5 C 116.661,207.831 91.9944,207.498 67.5,206.5 C 73.4173,194.204 83.0839,186.704 96.5,184 C 109.829,183.5 123.163,183.333 136.5,183.5 C 139.5,184.833 142.5,184.833 145.5,183.5 C 159.969,181.606 170.636,174.272 177.5,161.5 Z"/>
  <path fill="#a87061" d="M 140.5,182.5 C 141.919,183.451 143.585,183.784 145.5,183.5 C 142.5,184.833 139.5,184.833 136.5,183.5 C 137.833,183.167 139.167,182.833 140.5,182.5 Z"/>
  <path fill="#f3d7c6" d="M 67.5,206.5 C 91.9944,207.498 116.661,207.831 141.5,207.5 C 116.663,208.829 91.6634,208.829 66.5,207.5 C 66.6236,206.893 66.9569,206.56 67.5,206.5 Z"/>
</svg>
