<?xml version="1.0" standalone="no"?>
<!DOCTYPE svg PUBLIC "-//W3C//DTD SVG 20010904//EN"
        "http://www.w3.org/TR/2001/REC-SVG-20010904/DTD/svg10.dtd">
<svg version="1.0" xmlns="http://www.w3.org/2000/svg"
     width="1000.000000pt" height="1000.000000pt" viewBox="0 0 1000.000000 1000.000000"
     preserveAspectRatio="xMidYMid meet">

    <g transform="translate(0.000000,1000.000000) scale(0.100000,-0.100000)"
       fill="#000000" stroke="none">
        <path d="M270 5000 l0 -4730 4730 0 4730 0 0 4730 0 4730 -4730 0 -4730 0 0
-4730z m2032 1153 c172 -81 268 -254 241 -430 -28 -181 -159 -320 -332 -353
-29 -5 -197 -10 -371 -10 -367 0 -403 -6 -507 -84 -80 -61 -132 -136 -152
-223 -6 -24 -9 110 -10 374 -1 372 1 417 17 470 42 132 139 231 272 275 49 16
92 17 415 15 l360 -2 67 -32z m378 -1007 c106 -35 173 -76 250 -155 131 -132
176 -249 167 -436 -6 -131 -26 -195 -92 -295 -56 -84 -127 -148 -215 -194
-118 -62 -91 -59 -790 -65 l-645 -6 -53 -24 c-56 -25 -108 -76 -118 -116 -18
-72 -24 22 -24 375 0 493 9 547 115 696 55 77 120 131 210 177 125 64 154 66
675 64 418 -3 471 -5 520 -21z m2007 -29 c42 -100 256 -613 305 -731 27 -66
54 -129 60 -140 10 -19 11 -19 23 5 11 21 187 442 330 789 l52 125 104 0 104
0 3 -582 2 -583 -70 0 -70 0 -2 483 -3 482 -34 -80 c-18 -44 -89 -215 -158
-380 -69 -165 -142 -338 -162 -385 l-37 -85 -73 0 -73 0 -54 130 c-30 72 -63
150 -73 175 -49 122 -253 605 -261 619 -6 10 -10 -167 -10 -472 l0 -488 -66 3
-65 3 0 565 c1 311 1 573 1 583 0 15 11 17 103 17 l102 0 22 -53z m3980 -72
c2 -66 3 -126 3 -132 0 -10 24 -13 85 -13 l85 0 0 -65 0 -65 -85 0 c-61 0 -85
-3 -85 -12 0 -7 0 -124 0 -261 -1 -271 1 -281 60 -331 22 -18 43 -26 71 -26
43 0 42 2 42 -90 l0 -45 -64 1 c-106 1 -182 51 -233 151 -14 28 -16 90 -16
523 l0 491 68 -3 67 -3 2 -120z m-4554 -182 c94 -45 175 -124 216 -213 33 -71
58 -186 48 -214 -6 -14 -49 -16 -377 -16 l-370 0 0 -22 c1 -33 36 -106 74
-153 74 -90 212 -128 327 -90 41 14 69 33 116 82 l63 63 65 0 c77 0 80 -8 36
-85 -96 -167 -302 -250 -496 -199 -79 20 -139 56 -201 120 -199 207 -152 565
93 705 86 50 127 59 238 56 89 -2 108 -6 168 -34z m2208 21 c151 -44 278 -189
309 -353 5 -30 10 -161 10 -292 l0 -239 -70 0 -70 0 0 61 0 61 -31 -27 c-71
-59 -174 -95 -274 -95 -379 -1 -583 449 -340 746 43 52 130 112 197 135 67 23
195 25 269 3z m895 1 c70 -21 150 -80 195 -145 62 -89 69 -134 69 -457 l0
-283 -70 0 -70 0 0 283 c0 161 -4 298 -10 319 -16 57 -91 133 -152 154 -104
34 -219 -4 -283 -95 l-30 -43 -5 -306 -5 -307 -68 -3 -68 -3 3 318 3 318 32
60 c46 90 120 153 222 190 49 18 176 18 237 0z m971 -24 c121 -56 212 -169
248 -308 11 -43 15 -118 15 -305 l0 -248 -70 0 -70 0 0 55 c0 30 -2 55 -4 55
-2 0 -27 -16 -56 -35 -103 -69 -241 -92 -365 -59 -123 31 -219 114 -282 241
-34 69 -38 85 -41 172 -3 79 0 107 18 160 40 121 118 213 222 267 70 36 112
43 218 41 84 -3 103 -7 167 -36z"/>
        <path d="M3827 4746 c-39 -14 -54 -24 -101 -65 -30 -28 -76 -94 -76 -111 0 -6
98 -10 285 -10 l285 0 -19 38 c-27 53 -87 110 -146 138 -58 28 -165 32 -228
10z"/>
        <path d="M6098 4750 c-75 -23 -160 -108 -194 -196 -23 -61 -16 -183 15 -242
70 -137 232 -205 374 -156 61 21 141 93 175 158 23 44 27 63 27 136 0 78 -3
90 -34 148 -58 107 -149 162 -266 161 -38 0 -82 -4 -97 -9z"/>
        <path d="M7874 4734 c-65 -34 -110 -78 -142 -139 -24 -44 -27 -61 -27 -145 0
-84 3 -101 27 -146 30 -57 77 -103 141 -136 61 -33 193 -33 257 0 64 33 125
97 151 156 34 76 33 183 -3 258 -31 68 -85 122 -153 154 -73 35 -183 34 -251
-2z"/>
    </g>
</svg>
