<svg width="40" height="40" viewBox="0 0 1662 1662" fill="none" xmlns="http://www.w3.org/2000/svg" style="shape-rendering:geometricPrecision; text-rendering:geometricPrecision; image-rendering:optimizeQuality; fill-rule:evenodd; clip-rule:evenodd"><g><path style="opacity:1" fill="#fefefe" d="M -0.5,-0.5 C 553.5,-0.5 1107.5,-0.5 1661.5,-0.5C 1661.5,553.5 1661.5,1107.5 1661.5,1661.5C 1107.5,1661.5 553.5,1661.5 -0.5,1661.5C -0.5,1107.5 -0.5,553.5 -0.5,-0.5 Z"/></g>
<g><path style="opacity:1" fill="#fef0f5" d="M 376.5,701.5 C 314.833,701.5 253.167,701.5 191.5,701.5C 167.167,701.5 142.833,701.5 118.5,701.5C 203.516,700.827 288.683,700.16 374,699.5C 375.376,699.684 376.209,700.351 376.5,701.5 Z"/></g>
<g><path style="opacity:1" fill="#7d0026" d="M 119.5,703.5 C 137.993,702.503 156.659,702.17 175.5,702.5C 174.817,704.176 173.483,704.843 171.5,704.5C 171.667,717.837 171.5,731.171 171,744.5C 169.286,743.075 167.953,743.408 167,745.5C 165.406,744.284 163.906,742.951 162.5,741.5C 161.702,741.957 161.369,742.624 161.5,743.5C 157.833,740.167 154.167,736.833 150.5,733.5C 140.78,722.779 130.447,712.779 119.5,703.5 Z"/></g>
<g><path style="opacity:1" fill="#860027" d="M 175.5,702.5 C 180.833,702.5 186.167,702.5 191.5,702.5C 190.817,704.176 189.483,704.843 187.5,704.5C 187.5,720.167 187.5,735.833 187.5,751.5C 186.022,751.238 184.689,751.571 183.5,752.5C 185.213,753.878 186.547,755.545 187.5,757.5C 187.444,758.737 186.944,759.737 186,760.5C 183.258,760.725 180.424,760.392 177.5,759.5C 172.175,754.209 166.842,748.876 161.5,743.5C 161.369,742.624 161.702,741.957 162.5,741.5C 163.906,742.951 165.406,744.284 167,745.5C 167.953,743.408 169.286,743.075 171,744.5C 171.5,731.171 171.667,717.837 171.5,704.5C 173.483,704.843 174.817,704.176 175.5,702.5 Z"/></g>
<g><path style="opacity:1" fill="#8d0527" d="M 191.5,701.5 C 253.167,701.5 314.833,701.5 376.5,701.5C 375.833,702.833 374.833,703.833 373.5,704.5C 361.211,702.52 348.544,701.853 335.5,702.5C 330.167,702.5 324.833,702.5 319.5,702.5C 314.167,702.5 308.833,702.5 303.5,702.5C 292.833,702.5 282.167,702.5 271.5,702.5C 261.167,702.5 250.833,702.5 240.5,702.5C 239.833,702.5 239.167,702.5 238.5,702.5C 228.161,702.334 217.828,702.5 207.5,703C 207,703.5 206.5,704 206,704.5C 204.667,704.5 203.333,704.5 202,704.5C 201.5,725.497 201.333,746.497 201.5,767.5C 203.5,767.5 205.5,767.5 207.5,767.5C 207.67,768.822 207.337,769.989 206.5,771C 203.589,771.33 201.089,772.497 199,774.5C 198.411,770.93 197.077,770.596 195,773.5C 193.274,771.902 192.441,772.235 192.5,774.5C 187.167,769.833 182.167,764.833 177.5,759.5C 180.424,760.392 183.258,760.725 186,760.5C 186.944,759.737 187.444,758.737 187.5,757.5C 186.547,755.545 185.213,753.878 183.5,752.5C 184.689,751.571 186.022,751.238 187.5,751.5C 187.5,735.833 187.5,720.167 187.5,704.5C 189.483,704.843 190.817,704.176 191.5,702.5C 191.5,702.167 191.5,701.833 191.5,701.5 Z"/></g>
<g><path style="opacity:1" fill="#910025" d="M 238.5,702.5 C 232.315,703.288 225.982,703.955 219.5,704.5C 220.132,732.931 219.465,761.264 217.5,789.5C 218.116,791.721 219.283,792.388 221,791.5C 224.097,792.289 224.264,793.456 221.5,795C 223.41,795.408 224.41,796.575 224.5,798.5C 224.023,800.597 223.357,802.597 222.5,804.5C 212.167,794.833 202.167,784.833 192.5,774.5C 192.441,772.235 193.274,771.902 195,773.5C 197.077,770.596 198.411,770.93 199,774.5C 201.089,772.497 203.589,771.33 206.5,771C 207.337,769.989 207.67,768.822 207.5,767.5C 205.5,767.5 203.5,767.5 201.5,767.5C 201.333,746.497 201.5,725.497 202,704.5C 203.333,704.5 204.667,704.5 206,704.5C 206.5,704 207,703.5 207.5,703C 217.828,702.5 228.161,702.334 238.5,702.5 Z"/></g>
<g><path style="opacity:1" fill="#980024" d="M 238.5,702.5 C 239.167,702.5 239.833,702.5 240.5,702.5C 239.843,739.363 239.176,776.196 238.5,813C 239.949,814.117 241.616,814.784 243.5,815C 244.333,817.167 245.833,818.667 248,819.5C 248.175,822.157 248.008,824.824 247.5,827.5C 246.883,827.611 246.383,827.944 246,828.5C 243.167,825.667 240.333,822.833 237.5,820C 238.167,818.667 238.833,817.333 239.5,816C 238.551,815.383 237.718,815.549 237,816.5C 231.413,814.142 226.579,810.142 222.5,804.5C 223.357,802.597 224.023,800.597 224.5,798.5C 224.41,796.575 223.41,795.408 221.5,795C 224.264,793.456 224.097,792.289 221,791.5C 219.283,792.388 218.116,791.721 217.5,789.5C 219.465,761.264 220.132,732.931 219.5,704.5C 225.982,703.955 232.315,703.288 238.5,702.5 Z"/></g>
<g><path style="opacity:1" fill="#a20324" d="M 240.5,702.5 C 250.833,702.5 261.167,702.5 271.5,702.5C 269.095,703.768 266.428,704.435 263.5,704.5C 263.171,736.073 263.504,767.573 264.5,799C 262.824,800.177 261.491,801.677 260.5,803.5C 261.689,804.429 263.022,804.762 264.5,804.5C 263.937,807.374 262.937,810.04 261.5,812.5C 262.5,812.5 263.5,812.5 264.5,812.5C 264.5,811.167 264.5,809.833 264.5,808.5C 265.675,808.719 266.675,808.386 267.5,807.5C 266.359,806.575 266.359,805.741 267.5,805C 269.392,804.027 271.392,803.36 273.5,803C 271.073,801.446 271.073,800.279 273.5,799.5C 273.821,801.048 274.821,801.715 276.5,801.5C 268.753,810.843 260.419,819.51 251.5,827.5C 250.167,827.5 248.833,827.5 247.5,827.5C 248.008,824.824 248.175,822.157 248,819.5C 245.833,818.667 244.333,817.167 243.5,815C 241.616,814.784 239.949,814.117 238.5,813C 239.176,776.196 239.843,739.363 240.5,702.5 Z"/></g>
<g><path style="opacity:1" fill="#b50e26" d="M 303.5,702.5 C 308.833,702.5 314.167,702.5 319.5,702.5C 315.769,703.196 311.935,703.862 308,704.5C 307.333,719.833 307.333,735.167 308,750.5C 308.692,751.025 309.192,751.692 309.5,752.5C 307.548,755.16 305.548,757.826 303.5,760.5C 303.833,760.833 304.167,761.167 304.5,761.5C 306.316,760.185 307.983,758.685 309.5,757C 310.448,756.517 311.448,756.351 312.5,756.5C 312.5,757.833 312.5,759.167 312.5,760.5C 311.167,760.5 309.833,760.5 308.5,760.5C 308.338,762.527 308.505,764.527 309,766.5C 310.049,764.893 311.549,764.227 313.5,764.5C 301.527,777.14 289.194,789.473 276.5,801.5C 274.821,801.715 273.821,801.048 273.5,799.5C 274.792,796.713 274.792,793.879 273.5,791C 273.888,789.049 274.888,787.549 276.5,786.5C 277.333,759.173 277.833,731.839 278,704.5C 286.598,703.846 295.098,703.18 303.5,702.5 Z"/></g>
<g><path style="opacity:1" fill="#c31629" d="M 319.5,702.5 C 324.833,702.5 330.167,702.5 335.5,702.5C 333.107,703.21 330.607,703.877 328,704.5C 327.667,714.5 327.333,724.5 327,734.5C 325.599,736.146 325.432,737.813 326.5,739.5C 328.5,738.167 330.5,736.833 332.5,735.5C 333.88,736.976 335.547,737.976 337.5,738.5C 338.386,737.675 338.719,736.675 338.5,735.5C 339.5,735.5 340.5,735.5 341.5,735.5C 341.5,734.5 341.5,733.5 341.5,732.5C 342.5,732.5 343.5,732.5 344.5,732.5C 344.338,730.473 344.505,728.473 345,726.5C 346.249,728.992 347.416,728.825 348.5,726C 349.448,725.517 350.448,725.351 351.5,725.5C 351.343,724.127 351.51,722.793 352,721.5C 352.893,722.711 353.726,722.711 354.5,721.5C 352.766,719.025 351.933,716.358 352,713.5C 353,714.833 354,716.167 355,717.5C 357.456,715.679 360.289,715.012 363.5,715.5C 346.86,731.806 330.193,748.139 313.5,764.5C 311.549,764.227 310.049,764.893 309,766.5C 308.505,764.527 308.338,762.527 308.5,760.5C 309.833,760.5 311.167,760.5 312.5,760.5C 312.5,759.167 312.5,757.833 312.5,756.5C 311.448,756.351 310.448,756.517 309.5,757C 307.983,758.685 306.316,760.185 304.5,761.5C 304.167,761.167 303.833,760.833 303.5,760.5C 305.548,757.826 307.548,755.16 309.5,752.5C 309.192,751.692 308.692,751.025 308,750.5C 307.333,735.167 307.333,719.833 308,704.5C 311.935,703.862 315.769,703.196 319.5,702.5 Z"/></g>
<g><path style="opacity:1" fill="#aa0625" d="M 271.5,702.5 C 282.167,702.5 292.833,702.5 303.5,702.5C 295.098,703.18 286.598,703.846 278,704.5C 277.833,731.839 277.333,759.173 276.5,786.5C 274.888,787.549 273.888,789.049 273.5,791C 274.792,793.879 274.792,796.713 273.5,799.5C 271.073,800.279 271.073,801.446 273.5,803C 271.392,803.36 269.392,804.027 267.5,805C 266.359,805.741 266.359,806.575 267.5,807.5C 266.675,808.386 265.675,808.719 264.5,808.5C 264.5,809.833 264.5,811.167 264.5,812.5C 263.5,812.5 262.5,812.5 261.5,812.5C 262.937,810.04 263.937,807.374 264.5,804.5C 263.022,804.762 261.689,804.429 260.5,803.5C 261.491,801.677 262.824,800.177 264.5,799C 263.504,767.573 263.171,736.073 263.5,704.5C 266.428,704.435 269.095,703.768 271.5,702.5 Z"/></g>
<g><path style="opacity:1" fill="#cd1b29" d="M 335.5,702.5 C 348.544,701.853 361.211,702.52 373.5,704.5C 370.167,708.167 366.833,711.833 363.5,715.5C 360.289,715.012 357.456,715.679 355,717.5C 354,716.167 353,714.833 352,713.5C 351.933,716.358 352.766,719.025 354.5,721.5C 353.726,722.711 352.893,722.711 352,721.5C 351.51,722.793 351.343,724.127 351.5,725.5C 350.448,725.351 349.448,725.517 348.5,726C 347.416,728.825 346.249,728.992 345,726.5C 344.505,728.473 344.338,730.473 344.5,732.5C 343.5,732.5 342.5,732.5 341.5,732.5C 341.5,733.5 341.5,734.5 341.5,735.5C 340.5,735.5 339.5,735.5 338.5,735.5C 338.719,736.675 338.386,737.675 337.5,738.5C 335.547,737.976 333.88,736.976 332.5,735.5C 330.5,736.833 328.5,738.167 326.5,739.5C 325.432,737.813 325.599,736.146 327,734.5C 327.333,724.5 327.667,714.5 328,704.5C 330.607,703.877 333.107,703.21 335.5,702.5 Z"/></g>
<g><path style="opacity:1" fill="#9c0f33" d="M 119.5,703.5 C 130.447,712.779 140.78,722.779 150.5,733.5C 147.098,734.834 144.265,733.501 142,729.5C 141.667,729.833 141.333,730.167 141,730.5C 139.933,729.809 138.766,729.309 137.5,729C 136.167,728.333 136.167,727.667 137.5,727C 136.448,725.881 135.281,725.381 134,725.5C 131.455,718.801 127.288,713.468 121.5,709.5C 120.167,790.833 120.167,872.167 121.5,953.5C 125.702,950.632 129.369,947.132 132.5,943C 133.448,942.517 134.448,942.351 135.5,942.5C 135.973,938.362 138.307,936.362 142.5,936.5C 137.833,941.5 133.167,946.5 128.5,951.5C 125.853,953.811 123.186,956.144 120.5,958.5C 119.5,873.503 119.167,788.503 119.5,703.5 Z"/></g>
<g><path style="opacity:1" fill="#a1082e" d="M 150.5,733.5 C 154.167,736.833 157.833,740.167 161.5,743.5C 166.842,748.876 172.175,754.209 177.5,759.5C 182.167,764.833 187.167,769.833 192.5,774.5C 202.167,784.833 212.167,794.833 222.5,804.5C 226.579,810.142 231.413,814.142 237,816.5C 237.718,815.549 238.551,815.383 239.5,816C 238.833,817.333 238.167,818.667 237.5,820C 240.333,822.833 243.167,825.667 246,828.5C 246.383,827.944 246.883,827.611 247.5,827.5C 248.833,827.5 250.167,827.5 251.5,827.5C 250.211,828.637 249.211,829.97 248.5,831.5C 213.167,866.5 177.833,901.5 142.5,936.5C 138.307,936.362 135.973,938.362 135.5,942.5C 134.448,942.351 133.448,942.517 132.5,943C 129.369,947.132 125.702,950.632 121.5,953.5C 120.167,872.167 120.167,790.833 121.5,709.5C 127.288,713.468 131.455,718.801 134,725.5C 135.281,725.381 136.448,725.881 137.5,727C 136.167,727.667 136.167,728.333 137.5,729C 138.766,729.309 139.933,729.809 141,730.5C 141.333,730.167 141.667,729.833 142,729.5C 144.265,733.501 147.098,734.834 150.5,733.5 Z"/></g>
<g><path style="opacity:1" fill="#feedf9" d="M 118.5,701.5 C 118.5,787.5 118.5,873.5 118.5,959.5C 118.5,959.833 118.5,960.167 118.5,960.5C 117.501,875.002 117.167,789.335 117.5,703.5C 116.325,703.719 115.325,703.386 114.5,702.5C 115.689,701.571 117.022,701.238 118.5,701.5 Z"/></g>
<g><path style="opacity:1" fill="#781730" d="M 118.5,701.5 C 142.833,701.5 167.167,701.5 191.5,701.5C 191.5,701.833 191.5,702.167 191.5,702.5C 186.167,702.5 180.833,702.5 175.5,702.5C 156.659,702.17 137.993,702.503 119.5,703.5C 119.167,788.503 119.5,873.503 120.5,958.5C 123.186,956.144 125.853,953.811 128.5,951.5C 127.088,954.559 125.088,957.225 122.5,959.5C 121.167,959.5 119.833,959.5 118.5,959.5C 118.5,873.5 118.5,787.5 118.5,701.5 Z"/></g>
<g><path style="opacity:1" fill="#6a072b" d="M 1506.5,844.5 C 1507.17,844.5 1507.5,844.167 1507.5,843.5C 1516.85,832.815 1525.85,821.815 1534.5,810.5C 1535.29,810.217 1535.96,809.717 1536.5,809C 1548.5,808.333 1560.5,808.333 1572.5,809C 1570.96,810.371 1569.63,811.871 1568.5,813.5C 1555.99,825.847 1543.99,838.68 1532.5,852C 1541.21,862.605 1549.54,873.439 1557.5,884.5C 1557.85,887.463 1556.85,889.796 1554.5,891.5C 1554.56,892.737 1555.06,893.737 1556,894.5C 1557.59,893.624 1559.09,892.624 1560.5,891.5C 1561.54,894.44 1563.54,896.274 1566.5,897C 1567.31,898.972 1568.64,900.472 1570.5,901.5C 1571.25,902.736 1571.58,904.07 1571.5,905.5C 1561.83,905.666 1552.16,905.5 1542.5,905C 1541.66,903.989 1541.33,902.822 1541.5,901.5C 1539.5,901.5 1537.5,901.5 1535.5,901.5C 1526.26,890.014 1517.26,878.347 1508.5,866.5C 1507.45,864.067 1506.79,864.067 1506.5,866.5C 1504.94,873.586 1503.61,880.753 1502.5,888C 1502.68,892.556 1503.68,896.889 1505.5,901C 1505.36,902.226 1505.02,903.393 1504.5,904.5C 1496.86,905.497 1489.2,905.831 1481.5,905.5C 1480.53,849.846 1480.2,794.179 1480.5,738.5C 1488.09,738.579 1495.76,738.746 1503.5,739C 1498.68,740.279 1493.68,740.946 1488.5,741C 1493.82,741.499 1499.16,741.666 1504.5,741.5C 1503.18,769.163 1503.18,796.83 1504.5,824.5C 1504.33,827.833 1504.17,831.167 1504,834.5C 1503.31,835.025 1502.81,835.692 1502.5,836.5C 1506.1,839.429 1506.43,842.763 1503.5,846.5C 1503.83,846.833 1504.17,847.167 1504.5,847.5C 1505.18,846.398 1505.84,845.398 1506.5,844.5 Z"/></g>
<g><path style="opacity:1" fill="#7f4057" d="M 1055.5,737.5 C 1046.5,737.5 1037.5,737.5 1028.5,737.5C 1028.5,793.833 1028.5,850.167 1028.5,906.5C 1027.5,850.002 1027.17,793.336 1027.5,736.5C 1037.01,736.173 1046.35,736.506 1055.5,737.5 Z"/></g>
<g><path style="opacity:1" fill="#69072a" d="M 1055.5,737.5 C 1055.5,793.833 1055.5,850.167 1055.5,906.5C 1046.5,906.5 1037.5,906.5 1028.5,906.5C 1028.5,850.167 1028.5,793.833 1028.5,737.5C 1037.5,737.5 1046.5,737.5 1055.5,737.5 Z"/></g>
<g><path style="opacity:1" fill="#680b2b" d="M 804.5,750.5 C 822.614,750.77 828.781,759.437 823,776.5C 815.82,784.299 807.653,785.465 798.5,780C 789.008,767.733 791.008,757.899 804.5,750.5 Z"/></g>
<g><path style="opacity:1" fill="#a06c7f" d="M 1507.5,843.5 C 1507.5,844.167 1507.17,844.5 1506.5,844.5C 1506.5,808.833 1506.5,773.167 1506.5,737.5C 1497.5,737.5 1488.5,737.5 1479.5,737.5C 1479.5,793.833 1479.5,850.167 1479.5,906.5C 1488.5,906.5 1497.5,906.5 1506.5,906.5C 1497.35,907.494 1488.01,907.827 1478.5,907.5C 1478.5,850.5 1478.5,793.5 1478.5,736.5C 1488.17,736.5 1497.83,736.5 1507.5,736.5C 1507.5,772.167 1507.5,807.833 1507.5,843.5 Z"/></g>
<g><path style="opacity:1" fill="#630b2a" d="M 1506.5,844.5 C 1505.84,845.398 1505.18,846.398 1504.5,847.5C 1504.17,847.167 1503.83,846.833 1503.5,846.5C 1506.43,842.763 1506.1,839.429 1502.5,836.5C 1502.81,835.692 1503.31,835.025 1504,834.5C 1504.17,831.167 1504.33,827.833 1504.5,824.5C 1503.18,796.83 1503.18,769.163 1504.5,741.5C 1499.16,741.666 1493.82,741.499 1488.5,741C 1493.68,740.946 1498.68,740.279 1503.5,739C 1495.76,738.746 1488.09,738.579 1480.5,738.5C 1480.2,794.179 1480.53,849.846 1481.5,905.5C 1489.2,905.831 1496.86,905.497 1504.5,904.5C 1505.02,903.393 1505.36,902.226 1505.5,901C 1503.68,896.889 1502.68,892.556 1502.5,888C 1503.61,880.753 1504.94,873.586 1506.5,866.5C 1506.5,879.833 1506.5,893.167 1506.5,906.5C 1497.5,906.5 1488.5,906.5 1479.5,906.5C 1479.5,850.167 1479.5,793.833 1479.5,737.5C 1488.5,737.5 1497.5,737.5 1506.5,737.5C 1506.5,773.167 1506.5,808.833 1506.5,844.5 Z"/></g>
<g><path style="opacity:1" fill="#d0a4b3" d="M 509.5,757.5 C 521.34,756.175 533.34,756.175 545.5,757.5C 545.376,758.107 545.043,758.44 544.5,758.5C 533.012,757.505 521.345,757.172 509.5,757.5 Z"/></g>
<g><path style="opacity:1" fill="#6b082b" d="M 460.5,812.5 C 465.013,812.54 466.013,814.206 463.5,817.5C 464.661,819.224 464.495,820.89 463,822.5C 460.394,823.599 457.894,824.932 455.5,826.5C 453.201,825.365 451.034,824.032 449,822.5C 446.517,824.26 446.017,826.427 447.5,829C 454.744,829.195 461.911,830.029 469,831.5C 472.498,830.805 475.665,829.472 478.5,827.5C 478.263,831.41 479.096,835.077 481,838.5C 481.604,836.314 482.77,836.148 484.5,838C 487.378,840.709 490.044,843.542 492.5,846.5C 492,846.833 491.5,847.167 491,847.5C 487.021,845.34 483.521,842.673 480.5,839.5C 478.889,840.32 478.222,841.654 478.5,843.5C 480.635,843.147 481.968,843.98 482.5,846C 481.293,847.3 480.626,848.8 480.5,850.5C 479.5,850.5 478.5,850.5 477.5,850.5C 478.878,856.461 476.878,858.461 471.5,856.5C 472.366,853.447 474.2,851.113 477,849.5C 477.483,848.552 477.649,847.552 477.5,846.5C 475.833,846.5 474.167,846.5 472.5,846.5C 470.826,848.885 469.66,851.218 469,853.5C 467.056,852.561 465.389,851.227 464,849.5C 464.457,845.216 464.457,840.882 464,836.5C 463.586,836.043 463.086,835.709 462.5,835.5C 461.773,839.541 461.106,843.541 460.5,847.5C 459.5,847.167 458.833,846.5 458.5,845.5C 458.451,842.901 457.451,840.734 455.5,839C 454.256,838.544 453.423,839.044 453,840.5C 452.5,862.497 452.333,884.497 452.5,906.5C 443.5,906.5 434.5,906.5 425.5,906.5C 425.5,856.833 425.5,807.167 425.5,757.5C 434.833,757.5 444.167,757.5 453.5,757.5C 453.333,778.169 453.5,798.836 454,819.5C 456.4,817.271 458.567,814.937 460.5,812.5 Z"/></g>
<g><path style="opacity:1" fill="#5b162f" d="M 1196.5,761.5 C 1191.39,760.778 1186.39,759.612 1181.5,758C 1176.83,757.667 1172.17,757.333 1167.5,757C 1152.01,756.018 1136.68,756.352 1121.5,758C 1124.06,759.38 1124.06,760.88 1121.5,762.5C 1121.18,807.09 1121.51,851.757 1122.5,896.5C 1122.04,897.298 1121.38,897.631 1120.5,897.5C 1120.5,850.167 1120.5,802.833 1120.5,755.5C 1139.5,755.333 1158.5,755.5 1177.5,756C 1184.34,756.524 1190.67,758.357 1196.5,761.5 Z"/></g>
<g><path style="opacity:1" fill="#6a0a2c" d="M 881.5,832.5 C 880.502,856.994 880.169,881.661 880.5,906.5C 871.5,906.5 862.5,906.5 853.5,906.5C 853.5,881.833 853.5,857.167 853.5,832.5C 850.167,832.5 846.833,832.5 843.5,832.5C 843.5,824.5 843.5,816.5 843.5,808.5C 846.833,808.5 850.167,808.5 853.5,808.5C 853.5,797.5 853.5,786.5 853.5,775.5C 862.833,775.5 872.167,775.5 881.5,775.5C 881.5,786.5 881.5,797.5 881.5,808.5C 887.167,808.5 892.833,808.5 898.5,808.5C 898.5,816.5 898.5,824.5 898.5,832.5C 892.833,832.5 887.167,832.5 881.5,832.5 Z"/></g>
<g><path style="opacity:1" fill="#ebd3de" d="M 1432.5,806.5 C 1426.2,805.74 1419.86,805.407 1413.5,805.5C 1419.88,804.594 1426.21,803.928 1432.5,803.5C 1433.09,804.233 1433.09,805.233 1432.5,806.5 Z"/></g>
<g><path style="opacity:1" fill="#f4dde9" d="M 745.5,807.5 C 729.782,802.341 715.949,805.341 704,816.5C 703.503,813.854 703.336,811.187 703.5,808.5C 704.158,809.398 704.824,810.398 705.5,811.5C 708.337,810.669 710.504,809.002 712,806.5C 714.698,807.501 717.198,807.001 719.5,805C 727.5,804.333 735.5,804.333 743.5,805C 744.756,805.417 745.423,806.25 745.5,807.5 Z"/></g>
<g><path style="opacity:1" fill="#f4d0de" d="M 1568.5,813.5 C 1569.63,811.871 1570.96,810.371 1572.5,809C 1560.5,808.333 1548.5,808.333 1536.5,809C 1535.96,809.717 1535.29,810.217 1534.5,810.5C 1533.4,809.603 1533.4,808.77 1534.5,808C 1547.5,807.5 1560.5,807.333 1573.5,807.5C 1573.5,809.167 1573.5,810.833 1573.5,812.5C 1571.78,812.629 1570.12,812.962 1568.5,813.5 Z"/></g>
<g><path style="opacity:1" fill="#f6e0ea" d="M 1002.5,808.5 C 993.5,808.5 984.5,808.5 975.5,808.5C 974.683,810.969 974.183,813.635 974,816.5C 964.952,807.761 954.118,804.095 941.5,805.5C 944.207,803.976 947.207,802.976 950.5,802.5C 955.645,803.691 960.645,805.191 965.5,807C 966.667,808.167 967.833,809.333 969,810.5C 970.333,810.5 971.667,810.5 973,810.5C 973.483,809.552 973.649,808.552 973.5,807.5C 983.348,807.173 993.014,807.506 1002.5,808.5 Z"/></g>
<g><path style="opacity:1" fill="#f0d3de" d="M 1403.5,808.5 C 1401.86,809.473 1400.53,810.806 1399.5,812.5C 1398.83,812.5 1398.5,812.833 1398.5,813.5C 1396.38,814.031 1394.88,815.365 1394,817.5C 1393.5,815.19 1393.34,812.857 1393.5,810.5C 1384.56,808.528 1375.23,807.861 1365.5,808.5C 1375.32,807.506 1385.32,807.173 1395.5,807.5C 1395.21,809.288 1395.55,810.955 1396.5,812.5C 1397.41,810.336 1398.58,808.336 1400,806.5C 1400.71,807.973 1401.88,808.64 1403.5,808.5 Z"/></g>
<g><path style="opacity:1" fill="#690a2b" d="M 509.5,757.5 C 521.345,757.172 533.012,757.505 544.5,758.5C 522.487,781.847 500.82,805.513 479.5,829.5C 503.167,854.833 526.833,880.167 550.5,905.5C 538.848,906.666 527.181,906.833 515.5,906C 496.596,886.932 478.262,867.432 460.5,847.5C 461.106,843.541 461.773,839.541 462.5,835.5C 463.086,835.709 463.586,836.043 464,836.5C 464.457,840.882 464.457,845.216 464,849.5C 465.389,851.227 467.056,852.561 469,853.5C 469.66,851.218 470.826,848.885 472.5,846.5C 474.167,846.5 475.833,846.5 477.5,846.5C 477.649,847.552 477.483,848.552 477,849.5C 474.2,851.113 472.366,853.447 471.5,856.5C 476.878,858.461 478.878,856.461 477.5,850.5C 478.5,850.5 479.5,850.5 480.5,850.5C 480.626,848.8 481.293,847.3 482.5,846C 481.968,843.98 480.635,843.147 478.5,843.5C 478.222,841.654 478.889,840.32 480.5,839.5C 483.521,842.673 487.021,845.34 491,847.5C 491.5,847.167 492,846.833 492.5,846.5C 490.044,843.542 487.378,840.709 484.5,838C 482.77,836.148 481.604,836.314 481,838.5C 479.096,835.077 478.263,831.41 478.5,827.5C 475.665,829.472 472.498,830.805 469,831.5C 461.911,830.029 454.744,829.195 447.5,829C 446.017,826.427 446.517,824.26 449,822.5C 451.034,824.032 453.201,825.365 455.5,826.5C 457.894,824.932 460.394,823.599 463,822.5C 464.495,820.89 464.661,819.224 463.5,817.5C 466.013,814.206 465.013,812.54 460.5,812.5C 477.068,794.355 493.401,776.022 509.5,757.5 Z"/></g>
<g><path style="opacity:1" fill="#7f3d56" d="M 676.5,808.5 C 676.5,858.5 676.5,908.5 676.5,958.5C 685.5,958.5 694.5,958.5 703.5,958.5C 703.5,958.833 703.5,959.167 703.5,959.5C 694.167,959.5 684.833,959.5 675.5,959.5C 675.168,908.997 675.501,858.664 676.5,808.5 Z"/></g>
<g><path style="opacity:1" fill="#54132a" d="M 623.5,808.5 C 632.5,808.5 641.5,808.5 650.5,808.5C 650.5,841.167 650.5,873.833 650.5,906.5C 641.167,906.5 631.833,906.5 622.5,906.5C 622.806,903.615 622.473,900.948 621.5,898.5C 622.189,897.226 623.023,897.226 624,898.5C 624.497,900.81 624.663,903.143 624.5,905.5C 632.833,905.5 641.167,905.5 649.5,905.5C 649.667,874.165 649.5,842.832 649,811.5C 641.106,809.551 632.939,808.884 624.5,809.5C 624.662,811.527 624.495,813.527 624,815.5C 623.503,813.19 623.337,810.857 623.5,808.5 Z"/></g>
<g><path style="opacity:1" fill="#6a092c" d="M 795.5,808.5 C 804.833,808.5 814.167,808.5 823.5,808.5C 823.5,841.167 823.5,873.833 823.5,906.5C 814.167,906.5 804.833,906.5 795.5,906.5C 795.5,873.833 795.5,841.167 795.5,808.5 Z"/></g>
<g><path style="opacity:1" fill="#54122a" d="M 975.5,808.5 C 984.5,808.5 993.5,808.5 1002.5,808.5C 1002.5,841.167 1002.5,873.833 1002.5,906.5C 993.167,906.5 983.833,906.5 974.5,906.5C 974.664,903.813 974.497,901.146 974,898.5C 973.292,899.381 972.458,900.047 971.5,900.5C 971.5,899.5 971.5,898.5 971.5,897.5C 973.144,897.286 974.644,897.62 976,898.5C 976.497,900.81 976.663,903.143 976.5,905.5C 984.833,905.5 993.167,905.5 1001.5,905.5C 1001.67,874.165 1001.5,842.832 1001,811.5C 993.106,809.551 984.939,808.884 976.5,809.5C 976.662,811.527 976.495,813.527 976,815.5C 975.503,813.19 975.337,810.857 975.5,808.5 Z"/></g>
<g><path style="opacity:1" fill="#6a072b" d="M 1196.5,761.5 C 1207.61,767.35 1213.44,776.683 1214,789.5C 1216.46,803.946 1212.3,815.946 1201.5,825.5C 1200.5,825.5 1199.5,825.5 1198.5,825.5C 1198.37,827.655 1198.87,829.655 1200,831.5C 1200.33,831.167 1200.67,830.833 1201,830.5C 1202.11,832.037 1203.61,832.703 1205.5,832.5C 1205.11,835.466 1205.78,838.132 1207.5,840.5C 1208.67,840.833 1209.83,841.167 1211,841.5C 1213.51,840.425 1216.01,839.425 1218.5,838.5C 1218.68,840.591 1218.35,842.591 1217.5,844.5C 1217.85,845.696 1218.35,845.696 1219,844.5C 1219.96,846.199 1220.46,848.033 1220.5,850C 1218.09,859.194 1218.43,868.194 1221.5,877C 1220.97,879.02 1219.63,879.853 1217.5,879.5C 1216.52,866.208 1215.52,866.208 1214.5,879.5C 1209.83,879.5 1205.17,879.5 1200.5,879.5C 1200.72,878.325 1200.39,877.325 1199.5,876.5C 1198.47,879.7 1196.8,882.533 1194.5,885C 1187.07,888.635 1179.4,888.969 1171.5,886C 1176.72,884.768 1182.05,884.101 1187.5,884C 1190.65,881.183 1193.48,878.016 1196,874.5C 1197,874.833 1198,875.167 1199,875.5C 1199.63,872.689 1200.13,869.856 1200.5,867C 1199.55,861.804 1198.21,856.97 1196.5,852.5C 1195.66,852.158 1195.33,851.492 1195.5,850.5C 1193.99,844.369 1189.99,841.036 1183.5,840.5C 1172.83,839.833 1162.17,839.167 1151.5,838.5C 1156.83,837.833 1162.17,837.167 1167.5,836.5C 1161.42,835.09 1155.42,835.257 1149.5,837C 1147.65,840.501 1145.99,844.001 1144.5,847.5C 1143.5,858.146 1143.17,868.813 1143.5,879.5C 1144.5,879.5 1145.5,879.5 1146.5,879.5C 1146.33,883.835 1148.33,886.669 1152.5,888C 1162.53,888.502 1172.53,889.335 1182.5,890.5C 1182.83,891.167 1183.17,891.833 1183.5,892.5C 1178.46,893.169 1173.46,894.002 1168.5,895C 1170.1,895.273 1171.6,895.773 1173,896.5C 1175.81,896.371 1178.97,896.204 1182.5,896C 1186.1,893.431 1190.1,891.764 1194.5,891C 1195.2,887.593 1197.03,886.426 1200,887.5C 1201.07,890.531 1200.07,892.531 1197,893.5C 1196.67,894.833 1196.33,896.167 1196,897.5C 1195.67,897.167 1195.33,896.833 1195,896.5C 1190.73,897.035 1186.57,897.869 1182.5,899C 1166.82,899.167 1151.16,899.667 1135.5,900.5C 1135.71,901.086 1136.04,901.586 1136.5,902C 1151.5,902.667 1166.5,902.667 1181.5,902C 1187.36,900.351 1193.36,899.517 1199.5,899.5C 1199.24,898.022 1199.57,896.689 1200.5,895.5C 1203.04,894.885 1205.54,894.218 1208,893.5C 1210.08,895.557 1209.91,897.223 1207.5,898.5C 1190.49,904.933 1172.83,907.266 1154.5,905.5C 1144.17,905.333 1133.83,905.167 1123.5,905C 1123.5,903.601 1123.17,902.101 1122.5,900.5C 1122.04,899.702 1121.38,899.369 1120.5,899.5C 1120.5,898.833 1120.5,898.167 1120.5,897.5C 1121.38,897.631 1122.04,897.298 1122.5,896.5C 1121.51,851.757 1121.18,807.09 1121.5,762.5C 1124.06,760.88 1124.06,759.38 1121.5,758C 1136.68,756.352 1152.01,756.018 1167.5,757C 1172.17,757.333 1176.83,757.667 1181.5,758C 1186.39,759.612 1191.39,760.778 1196.5,761.5 Z"/></g>
<g><path style="opacity:1" fill="#621a33" d="M 1184.5,811.5 C 1186.5,804.67 1187,797.67 1186,790.5C 1183.74,784.269 1179.24,780.769 1172.5,780C 1164.84,779.5 1157.17,779.334 1149.5,779.5C 1149.5,792.5 1149.5,805.5 1149.5,818.5C 1157.17,818.666 1164.84,818.5 1172.5,818C 1176.65,817.586 1180.32,816.086 1183.5,813.5C 1182.26,815.988 1180.26,817.821 1177.5,819C 1168.14,819.219 1158.81,819.719 1149.5,820.5C 1147.69,820.048 1146.69,818.882 1146.5,817C 1147.77,811.301 1148.43,805.468 1148.5,799.5C 1148.21,792.141 1148.04,784.808 1148,777.5C 1157.09,778.319 1166.26,778.819 1175.5,779C 1181.13,779.957 1184.96,783.124 1187,788.5C 1187.83,795.856 1187.66,803.189 1186.5,810.5C 1185.82,810.863 1185.15,811.196 1184.5,811.5 Z"/></g>
<g><path style="opacity:1" fill="#fdfafc" d="M 1184.5,811.5 C 1183.66,811.842 1183.33,812.508 1183.5,813.5C 1180.32,816.086 1176.65,817.586 1172.5,818C 1164.84,818.5 1157.17,818.666 1149.5,818.5C 1149.5,805.5 1149.5,792.5 1149.5,779.5C 1157.17,779.334 1164.84,779.5 1172.5,780C 1179.24,780.769 1183.74,784.269 1186,790.5C 1187,797.67 1186.5,804.67 1184.5,811.5 Z"/></g>
<g><path style="opacity:1" fill="#54122b" d="M 1313.5,808.5 C 1322.5,808.5 1331.5,808.5 1340.5,808.5C 1340.5,841.167 1340.5,873.833 1340.5,906.5C 1339.17,906.5 1337.83,906.5 1336.5,906.5C 1337.21,905.596 1338.21,905.263 1339.5,905.5C 1339.96,873.792 1339.46,842.125 1338,810.5C 1331.96,810.277 1325.79,809.944 1319.5,809.5C 1315.24,809.102 1313.41,811.102 1314,815.5C 1313.5,813.19 1313.34,810.857 1313.5,808.5 Z"/></g>
<g><path style="opacity:1" fill="#f9e8f4" d="M 1340.5,808.5 C 1342.25,808.418 1343.25,809.251 1343.5,811C 1343,812.5 1342.5,814 1342,815.5C 1341.83,829.167 1341.67,842.833 1341.5,856.5C 1341.56,872.662 1341.89,888.662 1342.5,904.5C 1341.95,906.333 1341.11,908 1340,909.5C 1330.72,908.652 1321.56,907.652 1312.5,906.5C 1320.5,906.5 1328.5,906.5 1336.5,906.5C 1337.83,906.5 1339.17,906.5 1340.5,906.5C 1340.5,873.833 1340.5,841.167 1340.5,808.5 Z"/></g>
<g><path style="opacity:1" fill="#6a082b" d="M 623.5,808.5 C 623.337,810.857 623.503,813.19 624,815.5C 624.495,813.527 624.662,811.527 624.5,809.5C 632.939,808.884 641.106,809.551 649,811.5C 649.5,842.832 649.667,874.165 649.5,905.5C 641.167,905.5 632.833,905.5 624.5,905.5C 624.663,903.143 624.497,900.81 624,898.5C 623.023,897.226 622.189,897.226 621.5,898.5C 617.812,903.007 613.145,906.173 607.5,908C 580.633,912.733 562.633,902.233 553.5,876.5C 546.8,853.981 551.133,833.981 566.5,816.5C 581.501,803.974 597.834,802.141 615.5,811C 617.759,812.715 619.926,814.548 622,816.5C 622.183,813.635 622.683,810.969 623.5,808.5 Z"/></g>
<g><path style="opacity:1" fill="#6a082b" d="M 941.5,805.5 C 954.118,804.095 964.952,807.761 974,816.5C 974.183,813.635 974.683,810.969 975.5,808.5C 975.337,810.857 975.503,813.19 976,815.5C 976.495,813.527 976.662,811.527 976.5,809.5C 984.939,808.884 993.106,809.551 1001,811.5C 1001.5,842.832 1001.67,874.165 1001.5,905.5C 993.167,905.5 984.833,905.5 976.5,905.5C 976.663,903.143 976.497,900.81 976,898.5C 974.644,897.62 973.144,897.286 971.5,897.5C 971.5,898.5 971.5,899.5 971.5,900.5C 967.602,904.373 962.936,907.039 957.5,908.5C 932.97,912.068 915.97,902.402 906.5,879.5C 901.756,865.595 901.422,851.595 905.5,837.5C 911.587,820.075 923.587,809.408 941.5,805.5 Z"/></g>
<g><path style="opacity:1" fill="#6b062b" d="M 1368.5,815.5 C 1369.17,842.003 1369.83,868.67 1370.5,895.5C 1371.5,868.842 1371.83,842.175 1371.5,815.5C 1377.83,816.042 1384.16,816.709 1390.5,817.5C 1392.13,820.193 1394.3,821.193 1397,820.5C 1397.31,821.742 1396.81,822.742 1395.5,823.5C 1397.74,825.258 1398.74,827.592 1398.5,830.5C 1395.37,833.773 1393.53,837.773 1393,842.5C 1392.5,863.497 1392.33,884.497 1392.5,905.5C 1384.15,905.573 1375.81,905.24 1367.5,904.5C 1367.17,874.662 1367.5,844.995 1368.5,815.5 Z"/></g>
<g><path style="opacity:1" fill="#6d062b" d="M 1311.5,816.5 C 1312.17,813.833 1312.83,811.167 1313.5,808.5C 1313.34,810.857 1313.5,813.19 1314,815.5C 1313.41,811.102 1315.24,809.102 1319.5,809.5C 1320.68,810.688 1320.68,811.855 1319.5,813C 1323.78,816.477 1326.11,815.644 1326.5,810.5C 1329.98,812.721 1333.64,813.054 1337.5,811.5C 1337.69,813.103 1337.19,814.437 1336,815.5C 1335.83,841.84 1335.33,868.173 1334.5,894.5C 1333.5,867.842 1333.17,841.175 1333.5,814.5C 1332.45,814.351 1331.45,814.517 1330.5,815C 1331.83,841.767 1331.83,868.601 1330.5,895.5C 1329.67,869.173 1329.17,842.84 1329,816.5C 1328.67,816.167 1328.33,815.833 1328,815.5C 1327.71,821.434 1326.54,827.101 1324.5,832.5C 1327.59,836.354 1328.26,840.687 1326.5,845.5C 1324.97,843.249 1323.97,840.749 1323.5,838C 1322.39,836.606 1321.05,835.439 1319.5,834.5C 1318.75,833.264 1318.42,831.93 1318.5,830.5C 1315.22,830.216 1312.06,830.549 1309,831.5C 1307.63,829.063 1307.13,826.397 1307.5,823.5C 1298.56,826.333 1289.4,828.333 1280,829.5C 1278.17,828.99 1278.01,828.156 1279.5,827C 1281.11,826.28 1282.61,826.446 1284,827.5C 1286.76,825.357 1289.92,824.19 1293.5,824C 1294.97,823.29 1295.64,822.124 1295.5,820.5C 1290.2,821.194 1284.86,821.528 1279.5,821.5C 1279.33,820.178 1279.66,819.011 1280.5,818C 1284.17,817.667 1287.83,817.333 1291.5,817C 1288.83,816 1286.17,815 1283.5,814C 1284.94,813.781 1286.27,813.281 1287.5,812.5C 1284,810.739 1280.34,810.239 1276.5,811C 1275.26,817.413 1272.6,818.079 1268.5,813C 1268.67,812.5 1268.83,812 1269,811.5C 1277.06,807.183 1285.56,806.35 1294.5,809C 1292.5,810 1290.5,811 1288.5,812C 1290.2,812.958 1292.03,813.458 1294,813.5C 1296.83,812.797 1299.66,812.63 1302.5,813C 1303.83,813.667 1303.83,814.333 1302.5,815C 1301.21,815.49 1299.87,815.657 1298.5,815.5C 1298.93,818.246 1300.59,819.913 1303.5,820.5C 1304.17,819.167 1304.83,817.833 1305.5,816.5C 1306.19,817.025 1306.69,817.692 1307,818.5C 1308.05,816.893 1309.55,816.227 1311.5,816.5 Z"/></g>
<g><path style="opacity:1" fill="#fcfbfc" d="M 622.5,843.5 C 628.474,858.415 625.474,871.248 613.5,882C 596.472,888.673 585.305,883.173 580,865.5C 579.249,859.116 579.416,852.783 580.5,846.5C 586.446,832.529 596.779,827.696 611.5,832C 616.073,835.07 619.739,838.904 622.5,843.5 Z"/></g>
<g><path style="opacity:1" fill="#690a2b" d="M 745.5,807.5 C 765.082,817.297 775.082,833.297 775.5,855.5C 776.35,874.294 769.683,889.794 755.5,902C 743.765,909.448 731.099,911.448 717.5,908C 713.295,905.403 709.295,902.569 705.5,899.5C 705.167,898.833 704.833,898.167 704.5,897.5C 706.986,896.05 706.653,894.884 703.5,894C 704.253,892.513 705.086,892.346 706,893.5C 710.318,891.589 714.485,889.589 718.5,887.5C 716.059,885.775 713.392,884.275 710.5,883C 697.554,868.985 695.887,853.485 705.5,836.5C 707.69,834.142 710.19,832.142 713,830.5C 713.245,828.337 714.245,826.67 716,825.5C 722.801,826.881 729.635,828.214 736.5,829.5C 736.5,828.167 736.5,826.833 736.5,825.5C 730.082,826.098 724.082,824.931 718.5,822C 719.263,821.056 720.263,820.556 721.5,820.5C 726.456,821.394 731.456,821.727 736.5,821.5C 736.5,820.167 736.5,818.833 736.5,817.5C 730.824,817.334 725.157,817.501 719.5,818C 717.912,820.043 716.579,819.876 715.5,817.5C 715.709,816.914 716.043,816.414 716.5,816C 720.871,815.828 725.204,815.328 729.5,814.5C 726.232,813.513 722.898,813.18 719.5,813.5C 719.657,812.127 719.49,810.793 719,809.5C 717.055,810.863 714.888,811.697 712.5,812C 709.747,814.588 708.08,817.755 707.5,821.5C 706.5,822.167 705.5,822.833 704.5,823.5C 702.829,821.49 702.162,819.157 702.5,816.5C 697.103,816.785 691.77,816.451 686.5,815.5C 685.667,858.829 685.167,902.163 685,945.5C 684.667,902.5 684.333,859.5 684,816.5C 683.333,815.167 682.667,815.167 682,816.5C 681.167,862.837 681.333,909.17 682.5,955.5C 689.108,954.538 695.774,954.205 702.5,954.5C 702.17,935.326 702.503,916.326 703.5,897.5C 703.5,917.833 703.5,938.167 703.5,958.5C 694.5,958.5 685.5,958.5 676.5,958.5C 676.5,908.5 676.5,858.5 676.5,808.5C 685.5,808.5 694.5,808.5 703.5,808.5C 703.336,811.187 703.503,813.854 704,816.5C 715.949,805.341 729.782,802.341 745.5,807.5 Z"/></g>
<g><path style="opacity:1" fill="#fdfbfd" d="M 717.5,830.5 C 733.566,828.731 743.399,835.731 747,851.5C 748.471,863.121 744.971,872.954 736.5,881C 718.819,888.577 707.319,883.077 702,864.5C 698.846,849.152 704.013,837.819 717.5,830.5 Z"/></g>
<g><path style="opacity:1" fill="#6b062a" d="M 704.5,897.5 C 704.167,897.5 703.833,897.5 703.5,897.5C 702.503,916.326 702.17,935.326 702.5,954.5C 695.774,954.205 689.108,954.538 682.5,955.5C 681.333,909.17 681.167,862.837 682,816.5C 682.667,815.167 683.333,815.167 684,816.5C 684.333,859.5 684.667,902.5 685,945.5C 685.167,902.163 685.667,858.829 686.5,815.5C 691.77,816.451 697.103,816.785 702.5,816.5C 702.162,819.157 702.829,821.49 704.5,823.5C 705.5,822.833 706.5,822.167 707.5,821.5C 708.08,817.755 709.747,814.588 712.5,812C 714.888,811.697 717.055,810.863 719,809.5C 719.49,810.793 719.657,812.127 719.5,813.5C 722.898,813.18 726.232,813.513 729.5,814.5C 725.204,815.328 720.871,815.828 716.5,816C 716.043,816.414 715.709,816.914 715.5,817.5C 716.579,819.876 717.912,820.043 719.5,818C 725.157,817.501 730.824,817.334 736.5,817.5C 736.5,818.833 736.5,820.167 736.5,821.5C 731.456,821.727 726.456,821.394 721.5,820.5C 720.263,820.556 719.263,821.056 718.5,822C 724.082,824.931 730.082,826.098 736.5,825.5C 736.5,826.833 736.5,828.167 736.5,829.5C 729.635,828.214 722.801,826.881 716,825.5C 714.245,826.67 713.245,828.337 713,830.5C 710.19,832.142 707.69,834.142 705.5,836.5C 695.887,853.485 697.554,868.985 710.5,883C 713.392,884.275 716.059,885.775 718.5,887.5C 714.485,889.589 710.318,891.589 706,893.5C 705.086,892.346 704.253,892.513 703.5,894C 706.653,894.884 706.986,896.05 704.5,897.5 Z"/></g>
<g><path style="opacity:1" fill="#fcfbfc" d="M 947.5,830.5 C 962.633,828.648 972.466,834.981 977,849.5C 979.073,861.947 975.573,872.447 966.5,881C 949.284,889.027 937.784,883.86 932,865.5C 930.094,855.779 931.761,846.779 937,838.5C 939.94,834.963 943.44,832.297 947.5,830.5 Z"/></g>
<g><path style="opacity:1" fill="#680e2d" d="M 1413.5,805.5 C 1419.86,805.407 1426.2,805.74 1432.5,806.5C 1442.89,810.23 1449.39,817.563 1452,828.5C 1453.45,854.457 1453.95,880.457 1453.5,906.5C 1444.17,906.5 1434.83,906.5 1425.5,906.5C 1425.96,882.781 1425.46,859.114 1424,835.5C 1417.77,826.855 1409.93,825.188 1400.5,830.5C 1399.83,830.5 1399.17,830.5 1398.5,830.5C 1398.74,827.592 1397.74,825.258 1395.5,823.5C 1396.81,822.742 1397.31,821.742 1397,820.5C 1394.3,821.193 1392.13,820.193 1390.5,817.5C 1384.16,816.709 1377.83,816.042 1371.5,815.5C 1371.83,842.175 1371.5,868.842 1370.5,895.5C 1369.83,868.67 1369.17,842.003 1368.5,815.5C 1368.26,813.533 1368.59,811.699 1369.5,810C 1377.55,809.23 1385.55,809.397 1393.5,810.5C 1393.34,812.857 1393.5,815.19 1394,817.5C 1394.88,815.365 1396.38,814.031 1398.5,813.5C 1398.33,814.822 1398.66,815.989 1399.5,817C 1403.09,817.207 1406.59,817.707 1410,818.5C 1411.57,817.642 1413.24,816.975 1415,816.5C 1418.09,817.566 1421.26,818.232 1424.5,818.5C 1424.97,821.346 1424.14,823.679 1422,825.5C 1420,823.208 1417.33,820.875 1414,818.5C 1410.89,820.771 1407.39,821.938 1403.5,822C 1400.63,824.327 1400.97,825.827 1404.5,826.5C 1408.78,825.394 1413.11,825.228 1417.5,826C 1419.35,828.179 1421.51,830.013 1424,831.5C 1424.29,833.044 1424.96,834.377 1426,835.5C 1427.45,858.789 1427.95,882.122 1427.5,905.5C 1435.83,905.5 1444.17,905.5 1452.5,905.5C 1452.67,882.831 1452.5,860.164 1452,837.5C 1451.49,835.122 1450.82,832.788 1450,830.5C 1450.93,844.011 1451.43,857.678 1451.5,871.5C 1451.17,879.5 1450.83,887.5 1450.5,895.5C 1447.19,896.75 1443.69,897.416 1440,897.5C 1436.58,897.481 1433.25,897.147 1430,896.5C 1429.17,874.492 1429.33,852.492 1430.5,830.5C 1431.5,851.823 1431.83,873.156 1431.5,894.5C 1432.83,894.5 1434.17,894.5 1435.5,894.5C 1435.67,879.163 1435.5,863.83 1435,848.5C 1434.5,847.5 1434,846.5 1433.5,845.5C 1435.21,840.956 1436.54,836.29 1437.5,831.5C 1437.2,852.665 1437.53,873.998 1438.5,895.5C 1441.14,811.683 1443.81,811.683 1446.5,895.5C 1447.36,876.129 1447.69,856.796 1447.5,837.5C 1447.36,834.957 1446.69,832.623 1445.5,830.5C 1448.12,828.066 1448.96,825.066 1448,821.5C 1445.72,818.601 1443.22,815.934 1440.5,813.5C 1439.38,814.544 1438.04,815.21 1436.5,815.5C 1426.97,815.148 1417.3,814.481 1407.5,813.5C 1407.8,810.664 1407.13,810.164 1405.5,812C 1403.53,812.495 1401.53,812.662 1399.5,812.5C 1400.53,810.806 1401.86,809.473 1403.5,808.5C 1406.66,806.92 1409.99,805.92 1413.5,805.5 Z"/></g>
<g><path style="opacity:1" fill="#6c062a" d="M 1398.5,813.5 C 1398.5,812.833 1398.83,812.5 1399.5,812.5C 1401.53,812.662 1403.53,812.495 1405.5,812C 1407.13,810.164 1407.8,810.664 1407.5,813.5C 1417.3,814.481 1426.97,815.148 1436.5,815.5C 1438.04,815.21 1439.38,814.544 1440.5,813.5C 1443.22,815.934 1445.72,818.601 1448,821.5C 1448.96,825.066 1448.12,828.066 1445.5,830.5C 1446.69,832.623 1447.36,834.957 1447.5,837.5C 1447.69,856.796 1447.36,876.129 1446.5,895.5C 1443.81,811.683 1441.14,811.683 1438.5,895.5C 1437.53,873.998 1437.2,852.665 1437.5,831.5C 1436.54,836.29 1435.21,840.956 1433.5,845.5C 1434,846.5 1434.5,847.5 1435,848.5C 1435.5,863.83 1435.67,879.163 1435.5,894.5C 1434.17,894.5 1432.83,894.5 1431.5,894.5C 1431.83,873.156 1431.5,851.823 1430.5,830.5C 1429.33,852.492 1429.17,874.492 1430,896.5C 1433.25,897.147 1436.58,897.481 1440,897.5C 1443.69,897.416 1447.19,896.75 1450.5,895.5C 1450.83,887.5 1451.17,879.5 1451.5,871.5C 1451.43,857.678 1450.93,844.011 1450,830.5C 1450.82,832.788 1451.49,835.122 1452,837.5C 1452.5,860.164 1452.67,882.831 1452.5,905.5C 1444.17,905.5 1435.83,905.5 1427.5,905.5C 1427.95,882.122 1427.45,858.789 1426,835.5C 1424.96,834.377 1424.29,833.044 1424,831.5C 1421.51,830.013 1419.35,828.179 1417.5,826C 1413.11,825.228 1408.78,825.394 1404.5,826.5C 1400.97,825.827 1400.63,824.327 1403.5,822C 1407.39,821.938 1410.89,820.771 1414,818.5C 1417.33,820.875 1420,823.208 1422,825.5C 1424.14,823.679 1424.97,821.346 1424.5,818.5C 1421.26,818.232 1418.09,817.566 1415,816.5C 1413.24,816.975 1411.57,817.642 1410,818.5C 1406.59,817.707 1403.09,817.207 1399.5,817C 1398.66,815.989 1398.33,814.822 1398.5,813.5 Z"/></g>
<g><path style="opacity:1" fill="#6a072a" d="M 248.5,831.5 C 290.112,873.446 331.779,915.446 373.5,957.5C 332.839,958.833 291.839,959.5 250.5,959.5C 207.74,959.152 165.073,959.152 122.5,959.5C 125.088,957.225 127.088,954.559 128.5,951.5C 133.167,946.5 137.833,941.5 142.5,936.5C 177.833,901.5 213.167,866.5 248.5,831.5 Z"/></g>
<g><path style="opacity:1" fill="#f9e8f2" d="M 566.5,816.5 C 551.133,833.981 546.8,853.981 553.5,876.5C 551.716,875.426 550.549,873.76 550,871.5C 549.605,861.88 549.439,852.38 549.5,843C 552.629,836.936 554.463,830.436 555,823.5C 555.85,824.424 556.85,824.424 558,823.5C 560.181,821.644 562.015,819.477 563.5,817C 564.448,816.517 565.448,816.351 566.5,816.5 Z"/></g>
<g><path style="opacity:1" fill="#f9e7f2" d="M 905.5,837.5 C 901.422,851.595 901.756,865.595 906.5,879.5C 905.503,879.53 904.836,879.03 904.5,878C 902.013,871.943 901.013,865.61 901.5,859C 901.356,852.393 902.023,845.893 903.5,839.5C 902.391,837.786 903.058,837.119 905.5,837.5 Z"/></g>
<g><path style="opacity:1" fill="#641b33" d="M 1365.5,808.5 C 1375.23,807.861 1384.56,808.528 1393.5,810.5C 1385.55,809.397 1377.55,809.23 1369.5,810C 1368.59,811.699 1368.26,813.533 1368.5,815.5C 1367.5,844.995 1367.17,874.662 1367.5,904.5C 1375.81,905.24 1384.15,905.573 1392.5,905.5C 1392.33,884.497 1392.5,863.497 1393,842.5C 1393.53,837.773 1395.37,833.773 1398.5,830.5C 1399.17,830.5 1399.83,830.5 1400.5,830.5C 1396.72,834.737 1394.55,839.737 1394,845.5C 1393.5,865.831 1393.33,886.164 1393.5,906.5C 1384.17,906.5 1374.83,906.5 1365.5,906.5C 1365.5,873.833 1365.5,841.167 1365.5,808.5 Z"/></g>
<g><path style="opacity:1" fill="#702e47" d="M 458.5,845.5 C 456.871,844.375 455.371,843.041 454,841.5C 453.832,863.337 453.332,885.004 452.5,906.5C 452.333,884.497 452.5,862.497 453,840.5C 453.423,839.044 454.256,838.544 455.5,839C 457.451,840.734 458.451,842.901 458.5,845.5 Z"/></g>
<g><path style="opacity:1" fill="#660b2b" d="M 1201.5,825.5 C 1214.99,829.5 1223.16,838.5 1226,852.5C 1228.13,865.586 1226.13,877.919 1220,889.5C 1217.22,893.453 1213.72,896.453 1209.5,898.5C 1208.83,898.5 1208.17,898.5 1207.5,898.5C 1209.91,897.223 1210.08,895.557 1208,893.5C 1205.54,894.218 1203.04,894.885 1200.5,895.5C 1199.57,896.689 1199.24,898.022 1199.5,899.5C 1193.36,899.517 1187.36,900.351 1181.5,902C 1166.5,902.667 1151.5,902.667 1136.5,902C 1136.04,901.586 1135.71,901.086 1135.5,900.5C 1151.16,899.667 1166.82,899.167 1182.5,899C 1186.57,897.869 1190.73,897.035 1195,896.5C 1195.33,896.833 1195.67,897.167 1196,897.5C 1196.33,896.167 1196.67,894.833 1197,893.5C 1200.07,892.531 1201.07,890.531 1200,887.5C 1197.03,886.426 1195.2,887.593 1194.5,891C 1190.1,891.764 1186.1,893.431 1182.5,896C 1178.97,896.204 1175.81,896.371 1173,896.5C 1171.6,895.773 1170.1,895.273 1168.5,895C 1173.46,894.002 1178.46,893.169 1183.5,892.5C 1183.17,891.833 1182.83,891.167 1182.5,890.5C 1172.53,889.335 1162.53,888.502 1152.5,888C 1148.33,886.669 1146.33,883.835 1146.5,879.5C 1145.5,879.5 1144.5,879.5 1143.5,879.5C 1143.17,868.813 1143.5,858.146 1144.5,847.5C 1145.99,844.001 1147.65,840.501 1149.5,837C 1155.42,835.257 1161.42,835.09 1167.5,836.5C 1162.17,837.167 1156.83,837.833 1151.5,838.5C 1162.17,839.167 1172.83,839.833 1183.5,840.5C 1189.99,841.036 1193.99,844.369 1195.5,850.5C 1190.37,844.443 1183.71,841.443 1175.5,841.5C 1167.02,840.507 1158.35,840.174 1149.5,840.5C 1149.5,854.833 1149.5,869.167 1149.5,883.5C 1159.01,883.827 1168.35,883.494 1177.5,882.5C 1187.94,882.388 1194.44,877.388 1197,867.5C 1197.73,862.448 1197.56,857.448 1196.5,852.5C 1198.21,856.97 1199.55,861.804 1200.5,867C 1200.13,869.856 1199.63,872.689 1199,875.5C 1198,875.167 1197,874.833 1196,874.5C 1193.48,878.016 1190.65,881.183 1187.5,884C 1182.05,884.101 1176.72,884.768 1171.5,886C 1179.4,888.969 1187.07,888.635 1194.5,885C 1196.8,882.533 1198.47,879.7 1199.5,876.5C 1200.39,877.325 1200.72,878.325 1200.5,879.5C 1205.17,879.5 1209.83,879.5 1214.5,879.5C 1215.52,866.208 1216.52,866.208 1217.5,879.5C 1219.63,879.853 1220.97,879.02 1221.5,877C 1218.43,868.194 1218.09,859.194 1220.5,850C 1220.46,848.033 1219.96,846.199 1219,844.5C 1218.35,845.696 1217.85,845.696 1217.5,844.5C 1218.35,842.591 1218.68,840.591 1218.5,838.5C 1216.01,839.425 1213.51,840.425 1211,841.5C 1209.83,841.167 1208.67,840.833 1207.5,840.5C 1205.78,838.132 1205.11,835.466 1205.5,832.5C 1203.61,832.703 1202.11,832.037 1201,830.5C 1200.67,830.833 1200.33,831.167 1200,831.5C 1198.87,829.655 1198.37,827.655 1198.5,825.5C 1199.5,825.5 1200.5,825.5 1201.5,825.5 Z"/></g>
<g><path style="opacity:1" fill="#d0a3b4" d="M 1175.5,841.5 C 1167.17,841.5 1158.83,841.5 1150.5,841.5C 1150.5,855.167 1150.5,868.833 1150.5,882.5C 1159.5,882.5 1168.5,882.5 1177.5,882.5C 1168.35,883.494 1159.01,883.827 1149.5,883.5C 1149.5,869.167 1149.5,854.833 1149.5,840.5C 1158.35,840.174 1167.02,840.507 1175.5,841.5 Z"/></g>
<g><path style="opacity:1" fill="#fdfcfe" d="M 1175.5,841.5 C 1183.71,841.443 1190.37,844.443 1195.5,850.5C 1195.33,851.492 1195.66,852.158 1196.5,852.5C 1197.56,857.448 1197.73,862.448 1197,867.5C 1194.44,877.388 1187.94,882.388 1177.5,882.5C 1168.5,882.5 1159.5,882.5 1150.5,882.5C 1150.5,868.833 1150.5,855.167 1150.5,841.5C 1158.83,841.5 1167.17,841.5 1175.5,841.5 Z"/></g>
<g><path style="opacity:1" fill="#690a2c" d="M 1311.5,816.5 C 1309.55,816.227 1308.05,816.893 1307,818.5C 1306.69,817.692 1306.19,817.025 1305.5,816.5C 1304.83,817.833 1304.17,819.167 1303.5,820.5C 1300.59,819.913 1298.93,818.246 1298.5,815.5C 1299.87,815.657 1301.21,815.49 1302.5,815C 1303.83,814.333 1303.83,813.667 1302.5,813C 1299.66,812.63 1296.83,812.797 1294,813.5C 1292.03,813.458 1290.2,812.958 1288.5,812C 1290.5,811 1292.5,810 1294.5,809C 1285.56,806.35 1277.06,807.183 1269,811.5C 1268.83,812 1268.67,812.5 1268.5,813C 1272.6,818.079 1275.26,817.413 1276.5,811C 1280.34,810.239 1284,810.739 1287.5,812.5C 1286.27,813.281 1284.94,813.781 1283.5,814C 1286.17,815 1288.83,816 1291.5,817C 1287.83,817.333 1284.17,817.667 1280.5,818C 1279.66,819.011 1279.33,820.178 1279.5,821.5C 1284.86,821.528 1290.2,821.194 1295.5,820.5C 1295.64,822.124 1294.97,823.29 1293.5,824C 1289.92,824.19 1286.76,825.357 1284,827.5C 1282.61,826.446 1281.11,826.28 1279.5,827C 1278.01,828.156 1278.17,828.99 1280,829.5C 1289.4,828.333 1298.56,826.333 1307.5,823.5C 1307.13,826.397 1307.63,829.063 1309,831.5C 1312.06,830.549 1315.22,830.216 1318.5,830.5C 1318.42,831.93 1318.75,833.264 1319.5,834.5C 1321.05,835.439 1322.39,836.606 1323.5,838C 1323.97,840.749 1324.97,843.249 1326.5,845.5C 1328.26,840.687 1327.59,836.354 1324.5,832.5C 1326.54,827.101 1327.71,821.434 1328,815.5C 1328.33,815.833 1328.67,816.167 1329,816.5C 1329.17,842.84 1329.67,869.173 1330.5,895.5C 1331.83,868.601 1331.83,841.767 1330.5,815C 1331.45,814.517 1332.45,814.351 1333.5,814.5C 1333.17,841.175 1333.5,867.842 1334.5,894.5C 1335.33,868.173 1335.83,841.84 1336,815.5C 1337.19,814.437 1337.69,813.103 1337.5,811.5C 1333.64,813.054 1329.98,812.721 1326.5,810.5C 1326.11,815.644 1323.78,816.477 1319.5,813C 1320.68,811.855 1320.68,810.688 1319.5,809.5C 1325.79,809.944 1331.96,810.277 1338,810.5C 1339.46,842.125 1339.96,873.792 1339.5,905.5C 1338.21,905.263 1337.21,905.596 1336.5,906.5C 1328.5,906.5 1320.5,906.5 1312.5,906.5C 1312.66,903.813 1312.5,901.146 1312,898.5C 1302.55,908.465 1291.05,911.965 1277.5,909C 1258.19,903.69 1246.36,891.19 1242,871.5C 1236.89,846.814 1244.06,826.647 1263.5,811C 1277.5,803.667 1291.5,803.667 1305.5,811C 1308,812.331 1310,814.164 1311.5,816.5 Z"/></g>
<g><path style="opacity:1" fill="#fcfbfc" d="M 1285.5,830.5 C 1307.36,830.53 1317.19,841.53 1315,863.5C 1309.69,883.242 1297.85,889.075 1279.5,881C 1269.7,870.97 1266.87,859.136 1271,845.5C 1274.02,838.647 1278.85,833.647 1285.5,830.5 Z"/></g>
<g><path style="opacity:1" fill="#631630" d="M 622.5,843.5 C 624.48,844.848 625.647,846.848 626,849.5C 626.333,854.833 626.667,860.167 627,865.5C 627.556,863.405 628.056,863.238 628.5,865C 627.924,866.714 626.757,867.881 625,868.5C 625.291,872.741 623.624,875.741 620,877.5C 619.837,879.676 619.004,881.509 617.5,883C 612.587,884.201 607.754,885.367 603,886.5C 597.62,886.376 592.453,885.376 587.5,883.5C 586.123,881.711 585.123,879.711 584.5,877.5C 581.176,876.841 579.843,874.841 580.5,871.5C 579.5,871.5 578.5,871.5 577.5,871.5C 577.13,877.261 576.13,877.594 574.5,872.5C 576.874,865.045 578.207,857.378 578.5,849.5C 578.64,847.97 579.307,846.97 580.5,846.5C 579.416,852.783 579.249,859.116 580,865.5C 585.305,883.173 596.472,888.673 613.5,882C 625.474,871.248 628.474,858.415 622.5,843.5 Z"/></g>
<g><path style="opacity:1" fill="#bb8598" d="M 1508.5,866.5 C 1507.83,879.833 1507.17,893.167 1506.5,906.5C 1506.5,893.167 1506.5,879.833 1506.5,866.5C 1506.79,864.067 1507.45,864.067 1508.5,866.5 Z"/></g>
<g><path style="opacity:1" fill="#5b142d" d="M 1207.5,898.5 C 1208.17,898.5 1208.83,898.5 1209.5,898.5C 1208.25,900.136 1206.58,901.303 1204.5,902C 1199.63,903.802 1194.63,905.135 1189.5,906C 1166.5,906.5 1143.5,906.667 1120.5,906.5C 1120.5,904.167 1120.5,901.833 1120.5,899.5C 1121.38,899.369 1122.04,899.702 1122.5,900.5C 1123.17,902.101 1123.5,903.601 1123.5,905C 1133.83,905.167 1144.17,905.333 1154.5,905.5C 1172.83,907.266 1190.49,904.933 1207.5,898.5 Z"/></g>
<g><path style="opacity:1" fill="#5d132c" d="M 1557.5,884.5 C 1563.73,891.274 1569.73,898.274 1575.5,905.5C 1563.68,906.495 1551.68,906.828 1539.5,906.5C 1538.2,904.858 1536.86,903.191 1535.5,901.5C 1537.5,901.5 1539.5,901.5 1541.5,901.5C 1541.33,902.822 1541.66,903.989 1542.5,905C 1552.16,905.5 1561.83,905.666 1571.5,905.5C 1571.58,904.07 1571.25,902.736 1570.5,901.5C 1568.64,900.472 1567.31,898.972 1566.5,897C 1563.54,896.274 1561.54,894.44 1560.5,891.5C 1559.09,892.624 1557.59,893.624 1556,894.5C 1555.06,893.737 1554.56,892.737 1554.5,891.5C 1556.85,889.796 1557.85,887.463 1557.5,884.5 Z"/></g>
<g><path style="opacity:1" fill="#c596a7" d="M 881.5,832.5 C 881.5,857.5 881.5,882.5 881.5,907.5C 871.985,907.827 862.652,907.494 853.5,906.5C 862.5,906.5 871.5,906.5 880.5,906.5C 880.169,881.661 880.502,856.994 881.5,832.5 Z"/></g>
<g><path style="opacity:1" fill="#dab1c0" d="M 1575.5,905.5 C 1576.04,905.56 1576.38,905.893 1576.5,906.5C 1564.01,907.825 1551.67,907.825 1539.5,906.5C 1551.68,906.828 1563.68,906.495 1575.5,905.5 Z"/></g>
<g><path style="opacity:1" fill="#dfbfca" d="M 703.5,897.5 C 703.833,897.5 704.167,897.5 704.5,897.5C 704.833,898.167 705.167,898.833 705.5,899.5C 704.833,919.5 704.167,939.5 703.5,959.5C 703.5,959.167 703.5,958.833 703.5,958.5C 703.5,938.167 703.5,917.833 703.5,897.5 Z"/></g>
<g><path style="opacity:1" fill="#5a1029" d="M 373.5,957.5 C 374.833,958.167 375.833,959.167 376.5,960.5C 290.5,960.5 204.5,960.5 118.5,960.5C 118.5,960.167 118.5,959.833 118.5,959.5C 119.833,959.5 121.167,959.5 122.5,959.5C 165.073,959.152 207.74,959.152 250.5,959.5C 291.839,959.5 332.839,958.833 373.5,957.5 Z"/></g>
<g><path style="opacity:1" fill="#fef0fe" d="M 118.5,960.5 C 204.5,960.5 290.5,960.5 376.5,960.5C 376.389,961.117 376.056,961.617 375.5,962C 290.167,961.333 204.833,961.333 119.5,962C 118.944,961.617 118.611,961.117 118.5,960.5 Z"/></g>
</svg>
