<svg width="40" height="40" viewBox="0 0 1200 1200" fill="none" xmlns="http://www.w3.org/2000/svg" style="shape-rendering:geometricPrecision; text-rendering:geometricPrecision; image-rendering:optimizeQuality; fill-rule:evenodd; clip-rule:evenodd"><g><path style="opacity:1" fill="#fefefe" d="M -0.5,-0.5 C 399.5,-0.5 799.5,-0.5 1199.5,-0.5C 1199.5,399.5 1199.5,799.5 1199.5,1199.5C 799.5,1199.5 399.5,1199.5 -0.5,1199.5C -0.5,799.5 -0.5,399.5 -0.5,-0.5 Z"/></g>
<g><path style="opacity:1" fill="#f04635" d="M 654.5,161.5 C 657.974,162.525 661.64,163.192 665.5,163.5C 811.028,187.938 920.861,263.604 995,390.5C 1059.43,513.85 1066.76,640.516 1017,770.5C 998.432,814.165 973.932,853.999 943.5,890C 942.5,890.667 941.5,890.667 940.5,890C 932.477,880.787 925.311,870.954 919,860.5C 894.924,819.705 876.424,776.705 863.5,731.5C 863.59,728.848 862.924,726.515 861.5,724.5C 852.743,690.37 848.91,655.703 850,620.5C 856.796,603.566 866.129,588.232 878,574.5C 895.631,554.534 913.631,534.867 932,515.5C 941.811,504.535 951.144,493.202 960,481.5C 969.718,468.017 974.384,453.017 974,436.5C 968.162,418.165 956.329,412.665 938.5,420C 934.701,422.797 931.201,425.964 928,429.5C 920.5,442.504 912.5,455.171 904,467.5C 884.609,488.567 862.109,505.401 836.5,518C 829.208,521.657 821.542,522.991 813.5,522C 810.619,520.749 808.786,518.583 808,515.5C 807.228,510.096 807.561,504.762 809,499.5C 818.554,479.391 828.887,459.725 840,440.5C 845.344,431.364 846.677,421.698 844,411.5C 839.213,402.559 831.713,397.892 821.5,397.5C 819.359,396.837 817.025,396.503 814.5,396.5C 810.859,396.315 807.526,396.981 804.5,398.5C 794.547,400.475 785.547,404.642 777.5,411C 760.776,425.264 748.609,442.764 741,463.5C 737.726,472.824 737.726,482.157 741,491.5C 742.809,495.76 744.309,500.094 745.5,504.5C 745.41,507.152 746.076,509.485 747.5,511.5C 749.415,520.11 748.582,528.443 745,536.5C 737.039,547.125 727.205,555.625 715.5,562C 678.062,580.754 639.062,584.754 598.5,574C 582.948,569.113 571.781,559.279 565,544.5C 557.345,523.248 549.679,501.915 542,480.5C 534.468,458.584 522.301,439.751 505.5,424C 497.533,418.09 490.033,411.59 483,404.5C 473.177,392.499 471.843,379.499 479,365.5C 486.879,351.627 495.546,338.294 505,325.5C 510.399,316.465 513.899,306.799 515.5,296.5C 516.162,294.696 516.495,292.696 516.5,290.5C 516.657,287.186 515.991,284.186 514.5,281.5C 511.941,275.114 507.274,270.947 500.5,269C 494.235,267.516 487.902,267.182 481.5,268C 465.092,271.438 450.759,278.771 438.5,290C 426.272,299.998 417.106,312.165 411,326.5C 407.886,340.455 407.72,354.455 410.5,368.5C 410.41,371.152 411.076,373.485 412.5,375.5C 415.593,389.126 412.426,401.126 403,411.5C 391.255,422.242 380.589,433.909 371,446.5C 363.412,460.185 359.245,474.852 358.5,490.5C 357.028,494.919 356.362,499.586 356.5,504.5C 355.474,529.885 353.641,555.219 351,580.5C 344.874,601.004 339.374,621.67 334.5,642.5C 333.361,646.301 332.528,650.301 332,654.5C 331.176,663.676 331.343,672.676 332.5,681.5C 332.932,691.958 334.266,702.291 336.5,712.5C 336.41,715.152 337.076,717.485 338.5,719.5C 348.403,752.032 353.903,785.366 355,819.5C 357.949,862.104 354.449,904.104 344.5,945.5C 343.076,947.515 342.41,949.848 342.5,952.5C 341.174,956.959 339.34,961.293 337,965.5C 247.914,900.881 189.414,815.215 161.5,708.5C 161.59,705.848 160.924,703.515 159.5,701.5C 147.971,644.12 146.471,586.454 155,528.5C 156.982,515.921 159.816,503.587 163.5,491.5C 164.924,489.485 165.59,487.152 165.5,484.5C 198.884,371.221 265.884,283.721 366.5,222C 411.21,195.145 459.21,176.978 510.5,167.5C 519.143,166.226 527.81,165.06 536.5,164C 537.056,163.617 537.389,163.117 537.5,162.5C 540.728,161.586 544.061,161.253 547.5,161.5C 552.731,161.556 557.731,160.889 562.5,159.5C 593.227,157.841 623.894,158.507 654.5,161.5 Z"/></g>
<g><path style="opacity:1" fill="#e58175" d="M 562.5,159.5 C 557.731,160.889 552.731,161.556 547.5,161.5C 552.269,160.111 557.269,159.444 562.5,159.5 Z"/></g>
<g><path style="opacity:1" fill="#f1b8b0" d="M 654.5,161.5 C 658.489,161.116 662.155,161.783 665.5,163.5C 661.64,163.192 657.974,162.525 654.5,161.5 Z"/></g>
<g><path style="opacity:1" fill="#e45b4b" d="M 537.5,162.5 C 537.389,163.117 537.056,163.617 536.5,164C 527.81,165.06 519.143,166.226 510.5,167.5C 519.213,165.012 528.213,163.345 537.5,162.5 Z"/></g>
<g><path style="opacity:1" fill="#f1b4ac" d="M 514.5,281.5 C 515.991,284.186 516.657,287.186 516.5,290.5C 516.495,292.696 516.162,294.696 515.5,296.5C 515.587,291.463 515.254,286.463 514.5,281.5 Z"/></g>
<g><path style="opacity:1" fill="#e57a6f" d="M 410.5,368.5 C 411.924,370.515 412.59,372.848 412.5,375.5C 411.076,373.485 410.41,371.152 410.5,368.5 Z"/></g>
<g><path style="opacity:1" fill="#eea59e" d="M 821.5,397.5 C 815.797,397.375 810.13,397.708 804.5,398.5C 807.526,396.981 810.859,396.315 814.5,396.5C 817.025,396.503 819.359,396.837 821.5,397.5 Z"/></g>
<g><path style="opacity:1" fill="#e57465" d="M 165.5,484.5 C 165.59,487.152 164.924,489.485 163.5,491.5C 163.41,488.848 164.076,486.515 165.5,484.5 Z"/></g>
<g><path style="opacity:1" fill="#eea49c" d="M 358.5,490.5 C 358.638,495.414 357.972,500.081 356.5,504.5C 356.362,499.586 357.028,494.919 358.5,490.5 Z"/></g>
<g><path style="opacity:1" fill="#e6786e" d="M 745.5,504.5 C 746.924,506.515 747.59,508.848 747.5,511.5C 746.076,509.485 745.41,507.152 745.5,504.5 Z"/></g>
<g><path style="opacity:1" fill="#f04635" d="M 718.5,794.5 C 718.116,798.489 718.783,802.155 720.5,805.5C 722.967,820.105 724.967,834.772 726.5,849.5C 726.362,854.414 727.028,859.081 728.5,863.5C 728.302,868.75 728.969,873.75 730.5,878.5C 736.976,917.86 739.809,957.526 739,997.5C 739.087,1009.49 734.253,1018.99 724.5,1026C 719.666,1029.25 714.666,1032.25 709.5,1035C 693.887,1038.62 678.22,1041.79 662.5,1044.5C 656.949,1044.53 651.616,1045.19 646.5,1046.5C 640.828,1046.76 635.161,1047.09 629.5,1047.5C 613.472,1047.77 597.472,1047.44 581.5,1046.5C 565.653,1041.49 554.82,1031.15 549,1015.5C 544.896,1002.42 542.062,989.085 540.5,975.5C 540.666,971.154 540.499,966.821 540,962.5C 539.617,961.944 539.117,961.611 538.5,961.5C 537.351,947.192 536.684,932.858 536.5,918.5C 535.629,860.838 535.295,803.172 535.5,745.5C 535.986,720.292 539.82,695.625 547,671.5C 551.201,660.309 558.034,651.142 567.5,644C 570.614,642.017 573.947,640.517 577.5,639.5C 580.152,639.59 582.485,638.924 584.5,637.5C 618.238,634.554 648.905,643.054 676.5,663C 690.545,676.058 700.045,691.892 705,710.5C 710.643,738.314 715.143,766.314 718.5,794.5 Z"/></g>
<g><path style="opacity:1" fill="#e56f60" d="M 584.5,637.5 C 582.485,638.924 580.152,639.59 577.5,639.5C 579.515,638.076 581.848,637.41 584.5,637.5 Z"/></g>
<g><path style="opacity:1" fill="#f5b2a9" d="M 334.5,642.5 C 332.919,655.443 332.252,668.443 332.5,681.5C 331.343,672.676 331.176,663.676 332,654.5C 332.528,650.301 333.361,646.301 334.5,642.5 Z"/></g>
<g><path style="opacity:1" fill="#f2bfb7" d="M 159.5,701.5 C 160.924,703.515 161.59,705.848 161.5,708.5C 160.076,706.485 159.41,704.152 159.5,701.5 Z"/></g>
<g><path style="opacity:1" fill="#e57769" d="M 336.5,712.5 C 337.924,714.515 338.59,716.848 338.5,719.5C 337.076,717.485 336.41,715.152 336.5,712.5 Z"/></g>
<g><path style="opacity:1" fill="#f3bdb6" d="M 861.5,724.5 C 862.924,726.515 863.59,728.848 863.5,731.5C 862.076,729.485 861.41,727.152 861.5,724.5 Z"/></g>
<g><path style="opacity:1" fill="#e57465" d="M 718.5,794.5 C 719.525,797.974 720.192,801.64 720.5,805.5C 718.783,802.155 718.116,798.489 718.5,794.5 Z"/></g>
<g><path style="opacity:1" fill="#f04736" d="M 465.5,995.5 C 464.475,998.974 463.808,1002.64 463.5,1006.5C 462.534,1012.11 460.701,1017.44 458,1022.5C 457.044,1023.89 455.711,1024.56 454,1024.5C 445.856,1022.73 438.023,1020.06 430.5,1016.5C 428.051,1012 425.884,1007.33 424,1002.5C 413.111,954.597 410.611,906.264 416.5,857.5C 417.889,852.731 418.556,847.731 418.5,842.5C 419.717,832.965 421.883,823.632 425,814.5C 426.776,811.059 428.943,807.892 431.5,805C 436.533,803.433 440.367,804.933 443,809.5C 446.453,815.859 449.119,822.526 451,829.5C 460.915,875.07 466.082,921.236 466.5,968C 466.309,977.176 465.976,986.343 465.5,995.5 Z"/></g>
<g><path style="opacity:1" fill="#f04635" d="M 876.5,917.5 C 876.41,920.152 877.076,922.485 878.5,924.5C 881.709,935.177 880.542,945.51 875,955.5C 859.932,966.619 844.432,977.119 828.5,987C 822.286,989.877 817.12,988.71 813,983.5C 802.837,959.898 796.504,935.232 794,909.5C 791.83,889.215 791.163,868.881 792,848.5C 792.946,838.483 795.279,828.817 799,819.5C 800.833,817.667 802.667,815.833 804.5,814C 810.393,812.938 815.726,814.271 820.5,818C 827.375,823.207 833.208,829.374 838,836.5C 855.119,861.407 867.952,888.407 876.5,917.5 Z"/></g>
<g><path style="opacity:1" fill="#e36557" d="M 418.5,842.5 C 418.556,847.731 417.889,852.731 416.5,857.5C 416.444,852.269 417.111,847.269 418.5,842.5 Z"/></g>
<g><path style="opacity:1" fill="#e66f61" d="M 726.5,849.5 C 727.972,853.919 728.638,858.586 728.5,863.5C 727.028,859.081 726.362,854.414 726.5,849.5 Z"/></g>
<g><path style="opacity:1" fill="#e77061" d="M 728.5,863.5 C 729.889,868.269 730.556,873.269 730.5,878.5C 728.969,873.75 728.302,868.75 728.5,863.5 Z"/></g>
<g><path style="opacity:1" fill="#e89287" d="M 535.5,745.5 C 535.295,803.172 535.629,860.838 536.5,918.5C 534.95,885.515 534.284,852.348 534.5,819C 534.5,794.331 534.833,769.831 535.5,745.5 Z"/></g>
<g><path style="opacity:1" fill="#e67263" d="M 876.5,917.5 C 877.924,919.515 878.59,921.848 878.5,924.5C 877.076,922.485 876.41,920.152 876.5,917.5 Z"/></g>
<g><path style="opacity:1" fill="#f0b1a7" d="M 344.5,945.5 C 344.59,948.152 343.924,950.485 342.5,952.5C 342.41,949.848 343.076,947.515 344.5,945.5 Z"/></g>
<g><path style="opacity:1" fill="#e76152" d="M 538.5,961.5 C 539.117,961.611 539.617,961.944 540,962.5C 540.499,966.821 540.666,971.154 540.5,975.5C 539.578,971.005 538.911,966.338 538.5,961.5 Z"/></g>
<g><path style="opacity:1" fill="#f2bbb5" d="M 465.5,995.5 C 465.884,999.489 465.217,1003.16 463.5,1006.5C 463.808,1002.64 464.475,998.974 465.5,995.5 Z"/></g>
<g><path style="opacity:1" fill="#f5b9b1" d="M 662.5,1044.5 C 657.402,1045.96 652.069,1046.62 646.5,1046.5C 651.616,1045.19 656.949,1044.53 662.5,1044.5 Z"/></g>
<g><path style="opacity:1" fill="#e05242" d="M 581.5,1046.5 C 597.472,1047.44 613.472,1047.77 629.5,1047.5C 614.672,1048.66 599.672,1048.83 584.5,1048C 583.263,1047.77 582.263,1047.27 581.5,1046.5 Z"/></g>
</svg>
