<svg width="24" height="24" viewBox="0 0 40 40" fill="none" xmlns="http://www.w3.org/2000/svg">
<path d="M27.7737 26.1942H8.21705L29.3437 4.92292C29.6026 4.66154 29.7464 4.30647 29.7423 3.93823V0.971825C29.7423 0.112045 28.7108 -0.331802 28.105 0.292873L0.369076 28.2294C-0.4159 29.0053 0.134834 30.3508 1.23541 30.3508H25.4065C25.7715 30.3475 26.1216 30.2037 26.383 29.9481L28.4617 27.8554C28.8398 27.4699 28.8332 26.8518 28.4486 26.4737C28.2677 26.2969 28.0261 26.1967 27.7737 26.1942Z" fill="#FFCA8C"/>
<path d="M37.3676 0.458381L13.7349 24.2654H19.5707L35.3448 8.38199V35.8409H8.07654L11.6003 32.2909H5.76439L0.465279 37.6286C-0.402693 38.5024 0.21787 40 1.44258 40H37.698C38.6876 39.9983 39.489 39.1944 39.4874 38.2048C39.4874 38.2024 39.4874 38.1999 39.4874 38.1974V1.34527C39.4734 0.222471 38.1378 -0.332345 37.3676 0.458381Z" fill="#1EAAA2"/>
</svg>
