<?xml version="1.0" encoding="utf-8"?>
<!-- Generator: Adobe Illustrator 24.3.0, SVG Export Plug-In . SVG Version: 6.00 Build 0)  -->
<svg version="1.0" id="katman_1" xmlns="http://www.w3.org/2000/svg" xmlns:xlink="http://www.w3.org/1999/xlink" x="0px" y="0px"
	 viewBox="0 0 841.89 595.28" style="enable-background:new 0 0 841.89 595.28;" xml:space="preserve">
<style type="text/css">
	.st0{fill-rule:evenodd;clip-rule:evenodd;}
</style>
<path class="st0" d="M521.01,316.63c-3.7,0-5.55-1.82-5.55-4.55c0-2.28,1.85-4.01,5.08-4.55l10.17-1.82v0.91
	C530.71,312.53,526.55,316.63,521.01,316.63z M516.85,326.65c8.78,0,13.4-6.38,13.4-6.38h0.46v5.47c2.77,0,12.48,0,12.48,0v-27.78
	c0-10.02-7.86-17.76-19.41-17.76c-12.01,0-18.48,8.65-18.48,8.65l7.39,7.29c0,0,3.7-5.01,10.17-5.01c4.62,0,7.39,2.73,7.86,5.92
	l-14.32,2.55c-8.32,1.46-13.4,7.01-13.4,14.3C502.99,321.19,508.53,326.65,516.85,326.65z M423.53,325.74h12.48v-24.59
	c0-5.47,3.7-9.11,8.78-9.11c4.62,0,7.39,2.73,7.39,7.74v25.96h12.48v-24.59c0-5.47,3.7-9.11,8.78-9.11c4.62,0,7.39,2.73,7.39,7.74
	v25.96h12.48v-27.78c0-10.93-6.93-17.76-15.71-17.76c-9.7,0-14.79,7.74-14.79,7.74h-0.46c0,0-3.7-7.74-13.4-7.74
	c-8.78,0-12.48,7.29-12.48,7.29h-0.46v-6.38h-12.48V325.74z M405.26,275.19c3.97,0,7.21-3.19,7.21-6.83c0-3.64-3.23-6.83-7.12-6.83
	c-3.97,0-7.21,3.19-7.21,6.83C398.15,272,401.38,275.19,405.26,275.19z M399.07,325.74h12.48v-44.63h-12.48V325.74z M381.02,326.65
	c4.62,0,8.32-1.37,8.32-1.37V313.9c0,0-2.31,0.91-5.08,0.91c-3.7,0-6.01-2.28-6.01-6.38v-15.03h10.17v-11.39h-10.17v-13.66h-11.09
	v8.2c0,3.64-1.85,5.47-5.08,5.47h-4.16v11.39h7.86v16.85C365.77,320.73,371.77,326.65,381.02,326.65z M328.78,315.27
	c-6.47,0-11.55-5.01-11.55-11.84c0-6.83,5.08-11.84,11.55-11.84c6.47,0,11.55,5.01,11.55,11.84
	C340.33,310.26,335.25,315.27,328.78,315.27z M305.21,344.87h12.48v-25.5h0.46c0,0,4.62,7.29,14.32,7.29
	c10.63,0,20.33-9.56,20.33-23.23c0-13.66-9.7-23.23-20.33-23.23c-9.7,0-14.32,7.29-14.32,7.29h-0.46v-6.38h-12.48V344.87z
	 M259.96,314.36c-11.55,0-20.79-9.11-20.79-20.49c0-11.39,9.24-20.49,20.79-20.49s20.79,9.11,20.79,20.49
	C280.76,305.25,271.52,314.36,259.96,314.36z M259.96,327.11c19.87,0,35.12-15.03,35.12-33.25c0-18.22-15.25-33.25-35.12-33.25
	c-19.87,0-35.12,15.03-35.12,33.25C224.84,312.08,240.09,327.11,259.96,327.11z"/>
<path class="st0" d="M137.09,233.84c-10.94-0.2-21.27,2.29-30.36,6.83l65.35,55.72c0.67,0.58,0.67,1.61,0,2.18l-65.35,55.72
	c8.75,4.36,18.63,6.83,29.11,6.83c36.13,0,65.32-29.24,64.57-65.02C199.66,262.15,171.52,234.48,137.09,233.84z M726.89,325.74
	h12.48v-10.48l6.01-6.83l11.55,17.31h14.32l-17.56-25.96l16.64-18.67h-14.79l-16.17,18.22v-37.35h-12.48V325.74z M671.47,325.74
	h12.48v-23.68c0-5.92,4.16-10.02,9.7-10.02c5.08,0,8.32,3.19,8.32,8.65v25.05h12.48v-26.87c0-11.39-7.39-18.67-16.64-18.67
	c-8.78,0-13.4,7.29-13.4,7.29h-0.46v-6.38h-12.48V325.74z M637.27,316.63c-3.7,0-5.55-1.82-5.55-4.55c0-2.28,1.85-4.01,5.08-4.55
	l10.17-1.82v0.91C646.97,312.53,642.81,316.63,637.27,316.63z M633.11,326.65c8.78,0,13.4-6.38,13.4-6.38h0.46v5.47
	c2.77,0,12.48,0,12.48,0v-27.78c0-10.02-7.86-17.76-19.41-17.76c-12.01,0-18.48,8.65-18.48,8.65l7.39,7.29c0,0,3.7-5.01,10.17-5.01
	c4.62,0,7.39,2.73,7.86,5.92l-14.32,2.55c-8.32,1.46-13.4,7.01-13.4,14.3C619.25,321.19,624.79,326.65,633.11,326.65z
	 M573.92,286.57v-12.75h12.48c4.62,0,7.39,2.73,7.39,6.38c0,3.64-2.77,6.38-7.39,6.38H573.92z M573.92,313.9v-15.49h14.32
	c5.54,0,8.78,3.19,8.78,7.74c0,4.55-3.23,7.74-8.78,7.74H573.92z M560.06,325.74h29.11c13.86,0,22.18-8.2,22.18-18.22
	c0-12.3-12.01-15.48-12.01-15.48s8.78-3.19,8.78-13.21c0-9.11-7.86-16.85-20.79-16.85h-27.26V325.74z M119.15,294.77l-13.07-53.78
	c-20.69,10.61-34.83,31.91-34.83,56.48c0,24.57,14.14,45.88,34.83,56.48l13.07-53.78C119.57,298.39,119.57,296.54,119.15,294.77z"/>
</svg>
