<svg width="24" height="24" viewBox="0 0 40 40" fill="none" xmlns="http://www.w3.org/2000/svg">
<path d="M4 8.70667L8.844 17.365V22.6463L4.00567 31.2876L4 8.70667Z" fill="#5B57A2"/>
<path d="M22.5989 14.2145L27.1379 11.4325L36.4272 11.4238L22.5989 19.8952V14.2145Z" fill="#D90751"/>
<path d="M22.5733 8.65566L22.599 20.119L17.7437 17.1356V0L22.5736 8.65566H22.5733Z" fill="#FAB718"/>
<path d="M36.4273 11.4237L27.1376 11.4323L22.5733 8.65566L17.7437 0L36.427 11.4237H36.4273Z" fill="#ED6F26"/>
<path d="M22.599 31.3356V25.774L17.7437 22.8473L17.7463 39.9999L22.599 31.3356Z" fill="#63B22F"/>
<path d="M27.1266 28.579L8.84366 17.365L4 8.70667L36.4076 28.5676L27.1263 28.579H27.1266Z" fill="#1487C9"/>
<path d="M17.7468 39.9999L22.5988 31.3356L27.1265 28.579L36.4075 28.5676L17.7468 39.9999Z" fill="#017F36"/>
<path d="M4.00562 31.2875L17.7833 22.8475L13.1513 20.0055L8.84394 22.6462L4.00562 31.2875Z" fill="#984995"/>
</svg>

