<svg width="24" height="24" viewBox="0 0 40 41" fill="none" xmlns="http://www.w3.org/2000/svg">
<path d="M21.3 14.6C21.7 14.6 22.1 14.4 22.5 14.3L35.9 9.3C34.1 6.4 29.1 0.6 21.4 0.1C20.9 0 20.3 0 19.7 0C12.3 0 6.6 3.3 3 9.2C0.5 13 0 16.9 0 19.8C0 21.8 0.2 23.3 0.4 24C0.6 25.7 1.5 27.5 2 27.8C2.3 28 2.8 28.2 3.3 28.2C3.6 28.2 4 28.1 4.3 28L17.6 23C17.2 22.3 16.4 20.9 14.9 17.7C12.5 12.6 11.6 9.5 11.4 7.2C11.5 6.9 11.5 6.7 11.5 6.6C11.5 5.9 11.9 5.2 12.6 5.2C13.5 5.3 14.3 6 15.2 6.9C16.9 8.6 19.3 12.6 20.1 13.7C20.4 14.4 20.8 14.6 21.3 14.6Z" fill="#DB0334"/>
<path d="M18.6 25.4C18.2 25.4 17.8 25.5 17.4 25.7L4 30.8C5.8 33.7 10.8 39.4 18.5 40C19.1 40.1 19.6 40.1 20.2 40.1C27.6 40.1 33.3 36.8 37 30.9C39.4 27.1 40 23.2 40 20.1C40 18.1 39.8 16.7 39.6 16C39.4 14.3 38.5 12.5 37.9 12.2C37.6 12 37.1 11.8 36.5 11.8C36.2 11.8 35.8 11.9 35.5 12L22.2 17C22.6 17.7 23.4 19.1 24.9 22.3C27.3 27.4 28.2 30.4 28.4 32.8V33.3C28.4 34 28 34.7001 27.4 34.7001C26.5 34.6 25.7 33.9 24.8 33C23.1 31.3 20.7 27.3 19.9 26.2C19.6 25.6 19.1 25.4 18.6 25.4Z" fill="#DB0334"/>
</svg>
