<svg width="40" height="40" viewBox="0 0 1080 1080" fill="none" xmlns="http://www.w3.org/2000/svg" style="shape-rendering:geometricPrecision; text-rendering:geometricPrecision; image-rendering:optimizeQuality; fill-rule:evenodd; clip-rule:evenodd">
  <path d="M337.5 240.5C379.501 240.333 421.501 240.5 463.5 241C466.583 241.786 468.749 243.619 470 246.5C470.038 338.18 470.705 429.847 472 521.5C473.604 537.978 478.604 553.312 487 567.5C508.55 592.545 534.383 598.045 564.5 584C575.834 577.666 584.001 568.499 589 556.5C592.271 548.083 594.604 539.416 596 530.5C597.419 505.864 597.919 481.198 597.5 456.5H738.5C738.862 481.855 738.362 507.189 737 532.5C727.278 645.555 665.778 705.055 552.5 711C405.802 717.638 331.635 647.471 330 500.5C329.333 417.167 329.333 333.833 330 250.5C330.471 245.542 332.971 242.209 337.5 240.5Z" fill="#203E7A" />
  <path d="M606.5 240.5C614.167 240.5 621.833 240.5 629.5 240.5C631.197 288.086 653.531 321.92 696.5 342C709.987 347.331 723.987 350.164 738.5 350.5V429.5H597.5C597.333 369.832 597.5 310.166 598 250.5C598.908 245.432 601.741 242.099 606.5 240.5Z" fill="#203E7A" />
  <path d="M655.5 240.5C680.502 240.333 705.502 240.5 730.5 241C733.196 241.69 735.363 243.19 737 245.5C738.482 271.744 738.982 298.078 738.5 324.5C701.598 322.729 675.765 305.063 661 271.5C657.262 261.502 655.429 251.169 655.5 240.5Z" fill="#F3821E" />
  <path d="M737.5 765.5H752.5C752.666 769.846 752.499 774.179 752 778.5C748.787 785.482 743.62 787.315 736.5 784C730.108 777.564 730.441 771.398 737.5 765.5Z" fill="#233C7E" />
  <path d="M494.5 774.5C505.933 773.55 514.6 777.883 520.5 787.5C517.534 789.988 514.201 791.988 510.5 793.5C501.037 782.718 492.204 783.385 484 795.5C480.723 810.883 486.89 818.383 502.5 818C505.879 816.411 508.712 814.244 511 811.5C514.388 812.777 517.555 814.444 520.5 816.5C513.995 827.724 504.328 831.891 491.5 829C475.136 823.787 468.303 812.62 471 795.5C474.314 783.348 482.148 776.348 494.5 774.5Z" fill="#233C7E" />
  <path d="M329.5 775.5H342.5V811.5C347.676 818.792 353.842 820.292 361.5 816C363.041 814.421 364.208 812.587 365 810.5V775.5H377.5V817.5C371.44 826.369 364.107 830.369 354 829.5C339.89 830.05 331.89 823.383 330 809.5V775.5H329.5Z" fill="#233C7E" />
  <path d="M405.5 775.5H445.5V786.5L422.5 817H446.5V828.5H405.5V816.5L428.5 787.5H405.5V775.5Z" fill="#233C7E" />
  <path d="M560.5 775.5C565.544 775.173 570.544 775.506 575.5 776.5L595.5 827.5H581.5L568 819.5C559.515 817.035 555.015 820.035 554.5 828.5H540.5L560.5 775.5ZM567.5 789.5L575.5 809H560.5L567.5 789.5Z" fill="#233C7E" />
  <path d="M619.5 775.5H648.5C660.724 779.946 664.891 788.113 661 800.5C658.778 804.388 655.612 807.221 651.5 809L669.5 840.5H655.5L639.5 811.5H631.5V828.5H619.5V775.5ZM631.5 786.5C636.179 786.334 640.845 786.501 645.5 787C649.629 789.631 650.462 793.131 648 797.5L645.5 799H631.5V786.5Z" fill="#233C7E" />
  <path d="M689.5 775.5H715.5C730.622 778.12 738.289 786.786 738.5 802C738.641 815.863 731.974 824.53 718.5 828H689.5V775.5ZM701.5 786.5H718.5C726.281 793.351 728.448 800.518 725 809.5C723.108 813.058 720.275 815.558 716.5 817H701.5V786.5Z" fill="#233C7E" />
</svg>
